<svg xmlns="http://www.w3.org/2000/svg" xmlns:xlink="http://www.w3.org/1999/xlink" width="500" zoomAndPan="magnify" viewBox="0 0 375 374.999991" height="500" preserveAspectRatio="xMidYMid meet" version="1.0"><defs><clipPath id="614b73a45a"><path d="M 37.5 99.671875 L 47.773438 99.671875 L 47.773438 109.949219 L 37.5 109.949219 Z M 37.5 99.671875 " clip-rule="nonzero"/></clipPath><clipPath id="0de83f7275"><path d="M 42.636719 99.671875 C 39.800781 99.671875 37.5 101.972656 37.5 104.808594 C 37.5 107.648438 39.800781 109.949219 42.636719 109.949219 C 45.476562 109.949219 47.773438 107.648438 47.773438 104.808594 C 47.773438 101.972656 45.476562 99.671875 42.636719 99.671875 Z M 42.636719 99.671875 " clip-rule="nonzero"/></clipPath><clipPath id="80d84a2a07"><path d="M 37.5 49.875 L 270 49.875 L 270 325.125 L 37.5 325.125 Z M 37.5 49.875 " clip-rule="nonzero"/></clipPath></defs><g clip-path="url(#614b73a45a)"><g clip-path="url(#0de83f7275)"><path fill="#1c1b2f" d="M 37.5 99.671875 L 47.773438 99.671875 L 47.773438 109.949219 L 37.5 109.949219 Z M 37.5 99.671875 " fill-opacity="1" fill-rule="nonzero"/></g></g><g clip-path="url(#80d84a2a07)"><path fill="#1c1b2f" d="M 269.675781 325.101562 L 37.609375 325.101562 L 37.609375 101.597656 L 89.34375 49.863281 L 269.675781 49.863281 L 269.675781 109.230469 L 258.882812 109.230469 L 258.882812 60.65625 L 93.8125 60.65625 L 48.40625 106.0625 L 48.40625 314.308594 L 258.882812 314.308594 L 258.882812 249.550781 L 269.675781 249.550781 Z M 269.675781 325.101562 " fill-opacity="1" fill-rule="nonzero"/></g><path fill="#1c1b2f" d="M 96.976562 109.230469 L 43.003906 109.230469 L 43.003906 98.4375 L 86.179688 98.4375 L 86.179688 55.257812 L 96.976562 55.257812 Z M 96.976562 109.230469 " fill-opacity="1" fill-rule="nonzero"/><path fill="#1c1b2f" d="M 298.996094 208.597656 L 289.933594 202.75 L 322.828125 151.753906 C 324.324219 149.433594 323.671875 146.300781 321.375 144.777344 L 279.601562 116.925781 L 285.589844 107.945312 L 327.363281 135.796875 C 334.539062 140.589844 336.5625 150.367188 331.894531 157.613281 L 298.996094 208.605469 Z M 298.996094 208.597656 " fill-opacity="1" fill-rule="nonzero"/><path fill="#1c1b2f" d="M 192.753906 251.535156 L 198.734375 242.542969 L 231.136719 264.097656 L 225.15625 273.089844 Z M 192.753906 251.535156 " fill-opacity="1" fill-rule="nonzero"/><path fill="#1c1b2f" d="M 118.5625 93.039062 L 177.929688 93.039062 L 177.929688 103.832031 L 118.5625 103.832031 Z M 118.5625 93.039062 " fill-opacity="1" fill-rule="nonzero"/><path fill="#1c1b2f" d="M 188.722656 93.039062 L 199.515625 93.039062 L 199.515625 103.832031 L 188.722656 103.832031 Z M 188.722656 93.039062 " fill-opacity="1" fill-rule="nonzero"/><path fill="#1c1b2f" d="M 64.589844 136.210938 L 210.308594 136.210938 L 210.308594 147.003906 L 64.589844 147.003906 Z M 64.589844 136.210938 " fill-opacity="1" fill-rule="nonzero"/><path fill="#1c1b2f" d="M 64.589844 173.988281 L 140.152344 173.988281 L 140.152344 184.785156 L 64.589844 184.785156 Z M 64.589844 173.988281 " fill-opacity="1" fill-rule="nonzero"/><path fill="#1c1b2f" d="M 150.945312 173.988281 L 161.738281 173.988281 L 161.738281 184.785156 L 150.945312 184.785156 Z M 150.945312 173.988281 " fill-opacity="1" fill-rule="nonzero"/><path fill="#1c1b2f" d="M 80.785156 292.722656 L 140.152344 292.722656 L 140.152344 303.515625 L 80.785156 303.515625 Z M 80.785156 292.722656 " fill-opacity="1" fill-rule="nonzero"/><path fill="#1c1b2f" d="M 188.722656 289.585938 L 188.722656 247.957031 L 189.589844 246.621094 L 289.277344 92.128906 C 292.429688 87.226562 297.320312 83.878906 303.027344 82.691406 C 308.753906 81.503906 314.542969 82.640625 319.390625 85.863281 L 324.828125 89.488281 C 334.582031 95.996094 337.347656 109.304688 330.992188 119.152344 L 230.710938 274.59375 L 188.730469 289.585938 Z M 199.515625 251.136719 L 199.515625 274.269531 L 223.625 265.667969 L 321.921875 113.304688 C 325.097656 108.375 323.710938 101.726562 318.839844 98.476562 L 313.398438 94.851562 C 310.980469 93.238281 308.097656 92.667969 305.222656 93.261719 C 302.371094 93.851562 299.921875 95.527344 298.347656 97.976562 L 199.523438 251.132812 Z M 199.515625 251.136719 " fill-opacity="1" fill-rule="nonzero"/></svg>