<svg xmlns="http://www.w3.org/2000/svg" xmlns:xlink="http://www.w3.org/1999/xlink" width="500" zoomAndPan="magnify" viewBox="0 0 375 374.999991" height="500" preserveAspectRatio="xMidYMid meet" version="1.0"><defs><clipPath id="cc314f9a86"><path d="M 42.1875 37.5 L 333 37.5 L 333 337.5 L 42.1875 337.5 Z M 42.1875 37.5 " clip-rule="nonzero"/></clipPath><clipPath id="7591b5bf82"><path d="M 53.371094 255.921875 L 89.628906 255.921875 L 89.628906 292.179688 L 53.371094 292.179688 Z M 53.371094 255.921875 " clip-rule="nonzero"/></clipPath><clipPath id="5688606f12"><path d="M 71.5 255.921875 C 61.488281 255.921875 53.371094 264.039062 53.371094 274.050781 C 53.371094 284.0625 61.488281 292.179688 71.5 292.179688 C 81.511719 292.179688 89.628906 284.0625 89.628906 274.050781 C 89.628906 264.039062 81.511719 255.921875 71.5 255.921875 Z M 71.5 255.921875 " clip-rule="nonzero"/></clipPath></defs><g clip-path="url(#cc314f9a86)"><path fill="#1c1b2f" d="M 269.222656 301.703125 L 105.710938 301.703125 C 105.433594 301.703125 105.199219 301.875 105.113281 302.136719 C 104.496094 304.054688 103.820312 305.949219 103.085938 307.824219 C 103.058594 307.886719 103.046875 307.941406 103.042969 308.007812 L 102.730469 312.296875 C 102.707031 312.625 102.433594 312.878906 102.105469 312.878906 L 44.078125 312.878906 C 43.917969 312.878906 43.757812 312.882812 43.601562 312.890625 C 43.261719 312.90625 42.96875 312.648438 42.945312 312.3125 C 42.5625 307.0625 42.371094 301.015625 42.316406 295.21875 C 42.21875 284.425781 42.640625 274.390625 43.179688 272.023438 C 52.375 231.527344 48.921875 163.867188 79.808594 138.246094 C 79.957031 138.125 80.039062 137.957031 80.039062 137.765625 L 80.039062 56.320312 C 80.039062 45.976562 88.484375 37.53125 98.828125 37.53125 L 250.230469 37.53125 C 251.539062 37.53125 252.722656 38.066406 253.574219 38.933594 L 293.523438 78.882812 C 294.4375 79.796875 294.894531 80.996094 294.894531 82.195312 L 294.894531 137.769531 C 294.894531 137.960938 294.976562 138.125 295.125 138.246094 C 326.011719 163.867188 322.5625 231.53125 331.753906 272.023438 C 332.292969 274.390625 332.714844 284.425781 332.617188 295.222656 C 332.5625 301.035156 332.371094 307.105469 331.984375 312.363281 C 331.960938 312.691406 331.691406 312.941406 331.363281 312.941406 L 272.824219 312.878906 C 272.496094 312.878906 272.226562 312.628906 272.203125 312.300781 L 271.890625 308.007812 C 271.886719 307.941406 271.875 307.886719 271.847656 307.824219 C 271.113281 305.949219 270.4375 304.054688 269.820312 302.136719 C 269.734375 301.875 269.5 301.703125 269.222656 301.703125 Z M 112.914062 336.910156 L 112.914062 322.878906 C 112.914062 322.535156 112.636719 322.253906 112.289062 322.253906 L 44.832031 322.253906 C 44.488281 322.253906 44.207031 322.535156 44.207031 322.878906 L 44.207031 336.910156 C 44.207031 337.253906 44.488281 337.535156 44.832031 337.535156 L 112.289062 337.535156 C 112.632812 337.535156 112.914062 337.253906 112.914062 336.910156 Z M 330.101562 322.253906 L 262.644531 322.253906 C 262.300781 322.253906 262.019531 322.535156 262.019531 322.878906 L 262.019531 336.910156 C 262.019531 337.253906 262.300781 337.535156 262.644531 337.535156 L 330.101562 337.535156 C 330.445312 337.535156 330.726562 337.253906 330.726562 336.910156 L 330.726562 322.878906 C 330.726562 322.535156 330.445312 322.253906 330.101562 322.253906 Z M 285.519531 162.585938 L 285.519531 87.507812 C 285.519531 87.164062 285.238281 86.886719 284.894531 86.886719 L 264.332031 86.886719 C 253.988281 86.886719 245.542969 78.4375 245.542969 68.09375 L 245.542969 47.53125 C 245.542969 47.1875 245.261719 46.90625 244.917969 46.90625 L 98.828125 46.90625 C 93.660156 46.90625 89.414062 51.152344 89.414062 56.320312 L 89.414062 212.929688 C 89.414062 213.164062 89.53125 213.363281 89.738281 213.476562 C 89.941406 213.589844 90.175781 213.582031 90.371094 213.457031 L 117.296875 196.375 C 117.300781 196.371094 117.304688 196.371094 117.308594 196.367188 C 124.988281 191.261719 135.855469 193.839844 140.40625 201.574219 C 145.089844 209.542969 142.703125 219.390625 135.171875 224.167969 L 108.839844 240.875 C 108.628906 241.011719 108.519531 241.246094 108.558594 241.496094 C 111.078125 258.410156 111.355469 275.367188 107.925781 291.578125 C 107.886719 291.765625 107.929688 291.949219 108.050781 292.097656 C 108.175781 292.25 108.34375 292.332031 108.535156 292.332031 L 266.394531 292.332031 C 266.589844 292.332031 266.757812 292.25 266.882812 292.097656 C 267.003906 291.949219 267.046875 291.765625 267.007812 291.578125 C 263.578125 275.367188 263.855469 258.410156 266.375 241.496094 C 266.414062 241.246094 266.304688 241.011719 266.09375 240.875 L 239.761719 224.167969 C 227.554688 216.421875 230.488281 197.367188 245.023438 194.117188 C 249.15625 193.191406 253.632812 193.832031 257.464844 196.261719 L 284.5625 213.457031 C 284.757812 213.582031 284.992188 213.589844 285.199219 213.476562 C 285.402344 213.363281 285.523438 213.164062 285.523438 212.929688 L 285.523438 162.585938 Z M 150.46875 68.480469 C 141.140625 68.480469 133.582031 76.039062 133.582031 85.367188 C 133.582031 94.695312 141.140625 102.257812 150.46875 102.257812 C 159.796875 102.257812 167.359375 94.695312 167.359375 85.367188 C 167.359375 76.039062 159.796875 68.480469 150.46875 68.480469 Z M 140.207031 271.910156 L 234.726562 271.910156 C 237.316406 271.910156 239.414062 269.8125 239.414062 267.222656 C 239.414062 264.632812 237.316406 262.535156 234.726562 262.535156 L 140.207031 262.535156 C 137.617188 262.535156 135.515625 264.632812 135.515625 267.222656 C 135.515625 269.8125 137.617188 271.910156 140.207031 271.910156 Z M 204.042969 91.242188 L 211.835938 99.933594 C 213.554688 101.851562 216.5 102.015625 218.421875 100.308594 L 218.429688 100.316406 L 237.921875 82.9375 C 239.851562 81.21875 240.023438 78.261719 238.304688 76.328125 C 236.585938 74.398438 233.628906 74.226562 231.695312 75.945312 L 216.140625 89.8125 C 215.882812 90.042969 215.488281 90.019531 215.257812 89.765625 L 211 85.019531 C 209.28125 83.097656 206.328125 82.933594 204.40625 84.652344 C 202.484375 86.371094 202.320312 89.320312 204.042969 91.242188 Z M 204.042969 134.117188 L 211.835938 142.804688 C 213.554688 144.722656 216.5 144.890625 218.421875 143.179688 L 218.429688 143.191406 L 237.921875 125.8125 C 239.851562 124.09375 240.023438 121.132812 238.304688 119.203125 C 236.585938 117.269531 233.628906 117.097656 231.695312 118.816406 L 216.140625 132.6875 C 215.882812 132.914062 215.488281 132.894531 215.257812 132.636719 L 211 127.890625 C 209.28125 125.96875 206.328125 125.804688 204.40625 127.523438 C 202.484375 129.242188 202.320312 132.195312 204.042969 134.117188 Z M 204.042969 176.992188 L 211.835938 185.679688 C 213.554688 187.597656 216.5 187.765625 218.421875 186.054688 L 218.429688 186.066406 L 237.921875 168.6875 C 239.851562 166.96875 240.023438 164.007812 238.304688 162.074219 C 236.585938 160.144531 233.628906 159.972656 231.695312 161.691406 L 216.140625 175.5625 C 215.882812 175.789062 215.488281 175.769531 215.257812 175.511719 L 211 170.765625 C 209.28125 168.84375 206.328125 168.679688 204.40625 170.398438 C 202.484375 172.117188 202.320312 175.070312 204.042969 176.992188 Z M 140.609375 243.785156 L 229.394531 243.785156 C 231.984375 243.785156 234.082031 241.6875 234.082031 239.097656 C 234.082031 236.507812 231.984375 234.410156 229.394531 234.410156 L 140.609375 234.410156 C 138.019531 234.410156 135.921875 236.507812 135.921875 239.097656 C 135.921875 241.6875 138.019531 243.785156 140.609375 243.785156 Z M 150.46875 108.710938 C 129.128906 108.710938 111.667969 126.167969 111.667969 147.511719 L 111.667969 186.515625 C 111.667969 186.859375 111.949219 187.140625 112.292969 187.140625 L 188.644531 187.140625 C 188.988281 187.140625 189.269531 186.859375 189.269531 186.515625 L 189.269531 147.511719 C 189.269531 126.167969 171.8125 108.710938 150.46875 108.710938 Z M 150.46875 108.710938 " fill-opacity="1" fill-rule="evenodd"/></g><g clip-path="url(#7591b5bf82)"><g clip-path="url(#5688606f12)"><path fill="#1c1b2f" d="M 53.371094 255.921875 L 89.628906 255.921875 L 89.628906 292.179688 L 53.371094 292.179688 Z M 53.371094 255.921875 " fill-opacity="1" fill-rule="nonzero"/></g></g></svg>