<svg xmlns="http://www.w3.org/2000/svg" xmlns:xlink="http://www.w3.org/1999/xlink" width="500" zoomAndPan="magnify" viewBox="0 0 375 374.999991" height="500" preserveAspectRatio="xMidYMid meet" version="1.0"><defs><clipPath id="7a4d490918"><path d="M 64.988281 198.035156 L 75.261719 198.035156 L 75.261719 208.3125 L 64.988281 208.3125 Z M 64.988281 198.035156 " clip-rule="nonzero"/></clipPath><clipPath id="b97a594033"><path d="M 70.125 198.035156 C 67.285156 198.035156 64.988281 200.335938 64.988281 203.175781 C 64.988281 206.011719 67.285156 208.3125 70.125 208.3125 C 72.960938 208.3125 75.261719 206.011719 75.261719 203.175781 C 75.261719 200.335938 72.960938 198.035156 70.125 198.035156 Z M 70.125 198.035156 " clip-rule="nonzero"/></clipPath><clipPath id="3e1d730255"><path d="M 38 37.5 L 337 37.5 L 337 336.75 L 38 336.75 Z M 38 37.5 " clip-rule="nonzero"/></clipPath></defs><g clip-path="url(#7a4d490918)"><g clip-path="url(#b97a594033)"><path fill="#1c1b2f" d="M 64.988281 198.035156 L 75.261719 198.035156 L 75.261719 208.3125 L 64.988281 208.3125 Z M 64.988281 198.035156 " fill-opacity="1" fill-rule="nonzero"/></g></g><g clip-path="url(#3e1d730255)"><path fill="#000000" d="M 119.039062 118.566406 C 118.382812 114.769531 118.058594 110.90625 118.058594 106.976562 C 118.058594 68.667969 149.226562 37.5 187.53125 37.5 C 225.839844 37.5 257.007812 68.667969 257.007812 106.976562 C 257.007812 110.839844 256.679688 114.769531 256.027344 118.566406 C 255.566406 121.183594 253.339844 123.019531 250.789062 123.019531 C 250.527344 123.019531 250.199219 123.019531 249.871094 122.953125 C 246.988281 122.496094 245.027344 119.679688 245.484375 116.796875 C 246.007812 113.589844 246.269531 110.316406 246.269531 106.976562 C 246.269531 74.5625 219.878906 48.171875 187.46875 48.171875 C 155.054688 48.171875 128.664062 74.5625 128.664062 106.976562 C 128.664062 110.25 128.925781 113.589844 129.449219 116.796875 C 129.910156 119.679688 128.011719 122.496094 125.0625 122.953125 C 122.183594 123.410156 119.496094 121.445312 119.039062 118.566406 Z M 336.503906 211.027344 C 335.652344 213.777344 333.816406 216.003906 331.328125 217.378906 L 303.105469 232.570312 C 301.535156 233.421875 299.769531 233.878906 298.066406 233.878906 C 297.019531 233.878906 295.96875 233.746094 294.988281 233.421875 C 293.417969 232.960938 292.105469 232.109375 290.929688 231.0625 L 280.777344 241.933594 C 286.476562 249.332031 286.214844 256.992188 283.332031 262.691406 C 280.515625 268.125 275.410156 272.054688 269.972656 273.625 C 271.152344 279.125 269.582031 284.824219 265.257812 289.210938 C 261.460938 293.074219 255.960938 295.496094 249.9375 295.105469 C 249.675781 298.707031 248.039062 301.980469 245.679688 304.53125 C 241.488281 308.984375 234.808594 311.472656 228 310.6875 C 227.804688 314.683594 226.101562 318.414062 222.894531 321.363281 C 219.160156 324.898438 213.59375 326.992188 207.570312 326.992188 C 204.753906 326.992188 201.875 326.46875 198.992188 325.488281 C 198.335938 326.402344 197.683594 327.320312 196.832031 328.105469 L 193.359375 331.578125 C 189.890625 335.046875 185.371094 336.75 180.789062 336.75 C 176.269531 336.75 171.6875 335.046875 168.214844 331.578125 C 165.859375 329.21875 164.351562 326.339844 163.632812 323.328125 C 161.863281 323.851562 160.097656 324.242188 158.328125 324.242188 C 153.808594 324.242188 149.226562 322.539062 145.753906 319.070312 C 143.003906 316.320312 141.367188 312.847656 140.84375 309.3125 C 139.796875 309.507812 138.75 309.640625 137.636719 309.640625 C 133.117188 309.640625 128.535156 307.9375 125.0625 304.46875 C 121.921875 301.324219 120.285156 297.199219 119.957031 293.074219 C 119.628906 293.074219 119.300781 293.140625 118.972656 293.140625 C 114.195312 293.140625 109.742188 291.304688 106.402344 287.964844 C 99.917969 281.484375 99.589844 271.269531 105.222656 264.261719 L 82.5 232.242188 C 81.714844 232.765625 80.863281 233.222656 79.882812 233.484375 C 78.832031 233.8125 77.851562 233.945312 76.804688 233.945312 C 75.035156 233.945312 73.332031 233.484375 71.761719 232.632812 L 43.671875 217.378906 C 41.183594 216.003906 39.347656 213.777344 38.496094 211.027344 C 37.644531 208.277344 37.972656 205.394531 39.347656 202.90625 L 80.011719 127.339844 C 81.386719 124.851562 83.613281 123.019531 86.363281 122.167969 C 89.113281 121.316406 91.996094 121.644531 94.484375 123.019531 L 122.707031 138.210938 C 125.195312 139.585938 127.027344 141.8125 127.878906 144.5625 C 128.730469 147.3125 128.402344 150.195312 127.027344 152.683594 L 126.699219 153.269531 C 131.023438 156.347656 134.035156 157.660156 139.078125 157.070312 C 147.128906 155.957031 174.566406 152.746094 186.355469 157.789062 C 186.746094 157.984375 187.074219 158.183594 187.46875 158.378906 C 187.925781 158.117188 188.320312 157.855469 188.84375 157.660156 C 200.761719 152.617188 228.261719 155.824219 236.382812 156.9375 C 241.160156 157.460938 244.175781 156.285156 248.300781 153.335938 L 247.90625 152.683594 C 246.53125 150.195312 246.269531 147.246094 247.054688 144.5625 C 247.90625 141.8125 249.738281 139.585938 252.226562 138.210938 L 280.449219 123.019531 C 282.9375 121.644531 285.820312 121.382812 288.570312 122.167969 C 291.320312 123.019531 293.546875 124.851562 294.921875 127.339844 L 335.585938 202.90625 C 337.027344 205.460938 337.355469 208.339844 336.503906 211.027344 Z M 193.164062 167.480469 C 180.789062 173.175781 173.714844 194.195312 167.234375 217.964844 C 172.996094 219.734375 177.382812 219.867188 180.917969 218.359375 C 186.617188 215.871094 191.527344 208.734375 196.898438 195.046875 L 199.253906 189.089844 L 271.808594 233.945312 C 272.199219 234.207031 272.527344 234.46875 272.921875 234.730469 L 285.101562 221.632812 L 253.40625 162.765625 C 248.496094 166.105469 242.996094 168.398438 235.070312 167.480469 C 213.003906 164.535156 198.140625 165.320312 193.164062 167.480469 Z M 76.933594 223.207031 L 117.597656 147.640625 L 89.375 132.449219 L 48.710938 207.949219 Z M 124.148438 280.304688 L 125.0625 279.386719 C 125.128906 279.324219 125.128906 279.324219 125.195312 279.257812 L 130.824219 273.625 C 133.511719 270.875 133.511719 266.421875 130.761719 263.671875 C 128.011719 260.921875 123.492188 260.921875 120.742188 263.671875 L 114.128906 270.285156 C 111.378906 273.035156 111.378906 277.554688 114.128906 280.304688 C 116.8125 282.988281 121.460938 282.988281 124.148438 280.304688 Z M 142.742188 296.804688 L 155.382812 284.167969 C 158.132812 281.417969 158.132812 276.898438 155.382812 274.148438 C 154.007812 272.773438 152.171875 272.054688 150.40625 272.054688 C 148.636719 272.054688 146.804688 272.773438 145.429688 274.148438 L 138.421875 281.089844 C 138.355469 281.15625 138.355469 281.15625 138.289062 281.222656 L 132.660156 286.851562 C 129.972656 289.601562 129.972656 294.054688 132.726562 296.804688 C 135.476562 299.554688 139.992188 299.554688 142.742188 296.804688 Z M 163.4375 311.472656 L 167.953125 306.957031 C 168.085938 306.824219 168.214844 306.628906 168.347656 306.433594 L 170.246094 304.53125 C 172.734375 301.78125 172.734375 297.460938 170.050781 294.777344 C 167.300781 292.027344 162.78125 292.027344 160.03125 294.777344 L 153.417969 301.390625 C 150.667969 304.140625 150.667969 308.660156 153.417969 311.410156 C 156.167969 314.222656 160.683594 314.222656 163.4375 311.472656 Z M 189.628906 320.117188 C 189.5625 320.050781 189.433594 319.988281 189.367188 319.921875 L 190.9375 318.085938 C 191.921875 315.535156 191.394531 312.585938 189.367188 310.492188 C 188.054688 309.183594 186.289062 308.460938 184.390625 308.460938 C 182.492188 308.460938 180.722656 309.183594 179.414062 310.492188 L 178.039062 311.867188 C 177.90625 311.996094 177.777344 312.195312 177.644531 312.324219 L 175.746094 314.222656 C 173.191406 316.976562 173.257812 321.296875 175.941406 323.980469 C 178.691406 326.730469 183.210938 326.730469 185.960938 323.980469 L 189.433594 320.511719 C 189.496094 320.378906 189.5625 320.25 189.628906 320.117188 Z M 266.109375 242.980469 L 204.363281 204.804688 C 198.597656 217.769531 192.707031 224.90625 185.109375 228.183594 C 177.972656 231.257812 169.589844 230.671875 158.785156 226.28125 L 154.398438 224.515625 L 155.578125 219.929688 C 161.40625 197.796875 167.363281 178.21875 177.449219 166.433594 C 170.375 165.320312 157.609375 165.320312 140.320312 167.675781 C 132.070312 168.59375 126.570312 166.171875 121.527344 162.699219 L 89.113281 222.878906 L 112.820312 256.273438 L 113.082031 256.011719 C 120.019531 249.070312 131.285156 249.070312 138.226562 256.011719 C 140.320312 258.105469 141.695312 260.53125 142.480469 263.148438 C 149.09375 259.875 157.347656 260.921875 162.847656 266.488281 C 167.101562 270.746094 168.738281 276.703125 167.757812 282.269531 C 171.359375 282.859375 174.765625 284.429688 177.515625 287.179688 C 180.527344 290.191406 182.164062 294.054688 182.554688 298.050781 C 187.730469 297.59375 193.097656 299.164062 196.832031 302.894531 C 200.105469 306.171875 201.875 310.492188 202.003906 315.140625 C 207.570312 317.171875 213.003906 315.863281 215.558594 313.4375 C 218.503906 310.6875 217.195312 307.152344 215.296875 304.53125 L 207.375 298.835938 C 205.015625 297.132812 204.425781 293.792969 206.195312 291.371094 C 207.898438 288.949219 211.238281 288.425781 213.660156 290.191406 L 222.304688 296.414062 C 222.5 296.542969 222.566406 296.742188 222.761719 296.871094 L 222.828125 296.804688 C 228.195312 301.71875 234.941406 300.144531 237.824219 297.066406 C 239.984375 294.777344 239.523438 292.15625 236.644531 289.339844 L 222.433594 279.324219 C 220.011719 277.621094 219.421875 274.28125 221.125 271.859375 C 222.828125 269.433594 226.167969 268.847656 228.589844 270.546875 L 243.257812 280.894531 C 243.386719 281.023438 243.453125 281.15625 243.585938 281.289062 L 243.648438 281.222656 C 248.953125 285.804688 254.585938 284.625 257.53125 281.550781 C 258.582031 280.5 261.65625 276.574219 257.269531 271.660156 L 257.007812 271.335938 L 237.953125 259.089844 C 235.464844 257.515625 234.746094 254.179688 236.382812 251.691406 C 237.953125 249.203125 241.292969 248.480469 243.78125 250.117188 L 264.40625 263.410156 C 267.421875 263.738281 271.808594 261.445312 273.773438 257.648438 C 277.109375 251.363281 270.367188 245.730469 266.109375 242.980469 Z M 326.289062 207.949219 L 285.625 132.382812 L 257.402344 147.574219 L 298.066406 223.140625 Z M 304.808594 209.914062 C 309.261719 209.914062 312.796875 206.3125 312.796875 201.921875 C 312.796875 197.472656 309.195312 193.933594 304.808594 193.933594 C 300.421875 193.933594 296.820312 197.535156 296.820312 201.921875 C 296.820312 206.3125 300.355469 209.914062 304.808594 209.914062 Z M 70.191406 193.871094 C 65.738281 193.871094 62.203125 197.472656 62.203125 201.859375 C 62.203125 206.3125 65.804688 209.847656 70.191406 209.847656 C 74.578125 209.847656 78.179688 206.246094 78.179688 201.859375 C 78.246094 197.472656 74.644531 193.871094 70.191406 193.871094 Z M 208.550781 120.332031 C 208.550781 110.054688 200.171875 101.605469 189.824219 101.605469 L 184.457031 101.605469 C 180.003906 101.605469 176.464844 98.003906 176.464844 93.617188 C 176.464844 89.164062 180.066406 85.628906 184.457031 85.628906 L 189.824219 85.628906 C 192.378906 85.628906 194.734375 86.808594 196.242188 88.835938 C 198.007812 91.195312 201.347656 91.652344 203.707031 89.886719 C 206.0625 88.117188 206.523438 84.777344 204.753906 82.421875 C 201.742188 78.425781 197.289062 75.9375 192.378906 75.28125 C 192.378906 75.152344 192.445312 75.085938 192.445312 74.957031 L 192.445312 69.585938 C 192.445312 66.640625 190.085938 64.214844 187.074219 64.214844 C 184.128906 64.214844 181.703125 66.640625 181.703125 69.585938 L 181.703125 74.957031 C 181.703125 75.019531 181.769531 75.152344 181.769531 75.21875 C 172.734375 76.527344 165.660156 84.253906 165.660156 93.683594 C 165.660156 103.964844 174.042969 112.410156 184.390625 112.410156 L 189.757812 112.410156 C 194.210938 112.410156 197.746094 116.011719 197.746094 120.398438 C 197.746094 124.785156 194.144531 128.386719 189.757812 128.386719 L 184.390625 128.386719 C 181.835938 128.386719 179.480469 127.210938 177.972656 125.179688 C 176.203125 122.820312 172.863281 122.363281 170.507812 124.132812 C 168.148438 125.898438 167.691406 129.238281 169.460938 131.597656 C 172.472656 135.65625 176.925781 138.078125 181.835938 138.800781 C 181.835938 138.929688 181.769531 138.996094 181.769531 139.128906 L 181.769531 144.496094 C 181.769531 147.441406 184.128906 149.867188 187.140625 149.867188 C 190.085938 149.867188 192.507812 147.441406 192.507812 144.496094 L 192.507812 138.996094 C 192.507812 138.929688 192.445312 138.800781 192.445312 138.734375 C 201.546875 137.488281 208.550781 129.761719 208.550781 120.332031 Z M 208.550781 120.332031 " fill-opacity="1" fill-rule="nonzero"/></g></svg>