<svg xmlns="http://www.w3.org/2000/svg" xmlns:xlink="http://www.w3.org/1999/xlink" width="500" zoomAndPan="magnify" viewBox="0 0 375 374.999991" height="500" preserveAspectRatio="xMidYMid meet" version="1.0"><defs><clipPath id="17ee1f2b4c"><path d="M 142.210938 267.410156 L 152.488281 267.410156 L 152.488281 277.683594 L 142.210938 277.683594 Z M 142.210938 267.410156 " clip-rule="nonzero"/></clipPath><clipPath id="c7e15eb58d"><path d="M 147.347656 267.410156 C 144.511719 267.410156 142.210938 269.707031 142.210938 272.546875 C 142.210938 275.382812 144.511719 277.683594 147.347656 277.683594 C 150.1875 277.683594 152.488281 275.382812 152.488281 272.546875 C 152.488281 269.707031 150.1875 267.410156 147.347656 267.410156 Z M 147.347656 267.410156 " clip-rule="nonzero"/></clipPath><clipPath id="976a59634d"><path d="M 255 80.625 L 337.5 80.625 L 337.5 199 L 255 199 Z M 255 80.625 " clip-rule="nonzero"/></clipPath><clipPath id="176d61f46a"><path d="M 37.5 112 L 165 112 L 165 294.375 L 37.5 294.375 Z M 37.5 112 " clip-rule="nonzero"/></clipPath></defs><g clip-path="url(#17ee1f2b4c)"><g clip-path="url(#c7e15eb58d)"><path fill="#1c1b2f" d="M 142.210938 267.410156 L 152.488281 267.410156 L 152.488281 277.683594 L 142.210938 277.683594 Z M 142.210938 267.410156 " fill-opacity="1" fill-rule="nonzero"/></g></g><path fill="#000000" d="M 128.410156 176.042969 C 128.410156 175.152344 128.367188 174.257812 128.277344 173.371094 C 128.191406 172.480469 128.058594 171.597656 127.886719 170.722656 C 127.710938 169.847656 127.492188 168.980469 127.234375 168.128906 C 126.976562 167.273438 126.675781 166.433594 126.332031 165.605469 C 125.992188 164.78125 125.609375 163.976562 125.1875 163.1875 C 124.769531 162.398438 124.308594 161.632812 123.8125 160.890625 C 123.316406 160.148438 122.785156 159.433594 122.21875 158.742188 C 121.652344 158.050781 121.050781 157.390625 120.421875 156.757812 C 119.789062 156.128906 119.128906 155.527344 118.4375 154.960938 C 117.746094 154.394531 117.03125 153.863281 116.289062 153.367188 C 115.546875 152.871094 114.78125 152.414062 113.992188 151.992188 C 113.203125 151.570312 112.398438 151.1875 111.574219 150.847656 C 110.746094 150.503906 109.90625 150.203125 109.054688 149.945312 C 108.199219 149.6875 107.332031 149.46875 106.457031 149.296875 C 105.582031 149.121094 104.699219 148.988281 103.808594 148.902344 C 102.921875 148.816406 102.03125 148.769531 101.136719 148.769531 C 100.242188 148.769531 99.351562 148.816406 98.464844 148.902344 C 97.574219 148.988281 96.691406 149.121094 95.816406 149.296875 C 94.941406 149.46875 94.074219 149.6875 93.21875 149.945312 C 92.363281 150.203125 91.523438 150.503906 90.699219 150.847656 C 89.875 151.1875 89.066406 151.570312 88.28125 151.992188 C 87.492188 152.414062 86.726562 152.871094 85.984375 153.367188 C 85.242188 153.863281 84.523438 154.394531 83.835938 154.960938 C 83.144531 155.527344 82.484375 156.128906 81.851562 156.757812 C 81.21875 157.390625 80.621094 158.050781 80.054688 158.742188 C 79.488281 159.433594 78.957031 160.148438 78.460938 160.890625 C 77.964844 161.632812 77.503906 162.398438 77.082031 163.1875 C 76.664062 163.976562 76.28125 164.78125 75.941406 165.605469 C 75.597656 166.433594 75.296875 167.273438 75.039062 168.128906 C 74.777344 168.980469 74.5625 169.847656 74.386719 170.722656 C 74.214844 171.597656 74.082031 172.480469 73.996094 173.371094 C 73.90625 174.257812 73.863281 175.152344 73.863281 176.042969 C 73.863281 176.9375 73.90625 177.828125 73.996094 178.71875 C 74.082031 179.605469 74.214844 180.488281 74.386719 181.363281 C 74.5625 182.242188 74.777344 183.105469 75.039062 183.960938 C 75.296875 184.816406 75.597656 185.65625 75.941406 186.480469 C 76.28125 187.304688 76.664062 188.113281 77.082031 188.898438 C 77.503906 189.6875 77.964844 190.453125 78.460938 191.195312 C 78.957031 191.9375 79.488281 192.65625 80.054688 193.34375 C 80.621094 194.035156 81.21875 194.695312 81.851562 195.328125 C 82.484375 195.960938 83.144531 196.558594 83.835938 197.125 C 84.523438 197.691406 85.242188 198.222656 85.984375 198.71875 C 86.726562 199.214844 87.492188 199.675781 88.28125 200.097656 C 89.066406 200.515625 89.875 200.898438 90.699219 201.242188 C 91.523438 201.582031 92.363281 201.882812 93.21875 202.140625 C 94.074219 202.402344 94.941406 202.617188 95.816406 202.792969 C 96.691406 202.964844 97.574219 203.097656 98.464844 203.183594 C 99.351562 203.273438 100.242188 203.316406 101.136719 203.316406 C 102.03125 203.316406 102.921875 203.269531 103.808594 203.183594 C 104.695312 203.09375 105.578125 202.960938 106.453125 202.789062 C 107.332031 202.613281 108.195312 202.394531 109.050781 202.136719 C 109.902344 201.875 110.742188 201.574219 111.570312 201.234375 C 112.394531 200.890625 113.199219 200.507812 113.988281 200.085938 C 114.773438 199.667969 115.539062 199.207031 116.28125 198.710938 C 117.023438 198.214844 117.738281 197.683594 118.429688 197.117188 C 119.121094 196.550781 119.78125 195.953125 120.414062 195.320312 C 121.042969 194.6875 121.644531 194.027344 122.210938 193.335938 C 122.777344 192.648438 123.308594 191.929688 123.804688 191.1875 C 124.300781 190.445312 124.757812 189.679688 125.179688 188.894531 C 125.601562 188.105469 125.984375 187.300781 126.324219 186.476562 C 126.667969 185.652344 126.96875 184.8125 127.226562 183.957031 C 127.488281 183.101562 127.707031 182.238281 127.878906 181.363281 C 128.054688 180.488281 128.1875 179.605469 128.273438 178.714844 C 128.363281 177.828125 128.40625 176.9375 128.410156 176.042969 Z M 82.953125 176.042969 C 82.953125 175.449219 82.984375 174.855469 83.042969 174.261719 C 83.101562 173.667969 83.1875 173.082031 83.304688 172.496094 C 83.421875 171.914062 83.566406 171.335938 83.738281 170.765625 C 83.910156 170.195312 84.109375 169.636719 84.339844 169.085938 C 84.566406 168.535156 84.820312 168 85.101562 167.472656 C 85.382812 166.949219 85.6875 166.4375 86.019531 165.941406 C 86.347656 165.449219 86.703125 164.96875 87.082031 164.507812 C 87.460938 164.050781 87.859375 163.609375 88.28125 163.1875 C 88.699219 162.765625 89.140625 162.367188 89.601562 161.988281 C 90.0625 161.613281 90.539062 161.257812 91.035156 160.925781 C 91.53125 160.59375 92.039062 160.289062 92.566406 160.007812 C 93.089844 159.726562 93.628906 159.472656 94.179688 159.246094 C 94.730469 159.019531 95.289062 158.816406 95.859375 158.644531 C 96.429688 158.472656 97.003906 158.328125 97.589844 158.210938 C 98.171875 158.09375 98.761719 158.007812 99.355469 157.949219 C 99.945312 157.890625 100.539062 157.863281 101.136719 157.863281 C 101.730469 157.863281 102.324219 157.890625 102.917969 157.949219 C 103.511719 158.007812 104.097656 158.09375 104.683594 158.210938 C 105.265625 158.328125 105.84375 158.472656 106.414062 158.644531 C 106.984375 158.816406 107.542969 159.019531 108.09375 159.246094 C 108.644531 159.472656 109.183594 159.726562 109.707031 160.007812 C 110.230469 160.289062 110.742188 160.59375 111.238281 160.925781 C 111.734375 161.257812 112.210938 161.613281 112.671875 161.988281 C 113.132812 162.367188 113.570312 162.765625 113.992188 163.1875 C 114.414062 163.609375 114.8125 164.050781 115.191406 164.507812 C 115.570312 164.96875 115.921875 165.449219 116.253906 165.941406 C 116.585938 166.4375 116.890625 166.949219 117.171875 167.472656 C 117.453125 168 117.707031 168.535156 117.933594 169.085938 C 118.160156 169.636719 118.363281 170.195312 118.535156 170.765625 C 118.707031 171.335938 118.851562 171.914062 118.96875 172.496094 C 119.085938 173.082031 119.171875 173.667969 119.230469 174.261719 C 119.289062 174.855469 119.316406 175.449219 119.316406 176.042969 C 119.316406 176.640625 119.289062 177.234375 119.230469 177.824219 C 119.171875 178.417969 119.085938 179.007812 118.96875 179.589844 C 118.851562 180.175781 118.707031 180.75 118.535156 181.320312 C 118.363281 181.890625 118.160156 182.453125 117.933594 183 C 117.707031 183.550781 117.453125 184.089844 117.171875 184.613281 C 116.890625 185.140625 116.585938 185.648438 116.253906 186.144531 C 115.921875 186.640625 115.570312 187.117188 115.191406 187.578125 C 114.8125 188.039062 114.414062 188.480469 113.992188 188.898438 C 113.570312 189.320312 113.132812 189.722656 112.671875 190.097656 C 112.210938 190.476562 111.734375 190.832031 111.238281 191.160156 C 110.742188 191.492188 110.230469 191.796875 109.707031 192.078125 C 109.183594 192.359375 108.644531 192.613281 108.09375 192.839844 C 107.542969 193.070312 106.984375 193.269531 106.414062 193.441406 C 105.84375 193.617188 105.265625 193.761719 104.683594 193.875 C 104.097656 193.992188 103.511719 194.078125 102.917969 194.136719 C 102.324219 194.195312 101.730469 194.226562 101.136719 194.226562 C 100.542969 194.226562 99.945312 194.195312 99.355469 194.136719 C 98.761719 194.078125 98.175781 193.988281 97.589844 193.871094 C 97.007812 193.757812 96.429688 193.609375 95.859375 193.4375 C 95.292969 193.265625 94.730469 193.0625 94.183594 192.835938 C 93.632812 192.609375 93.09375 192.351562 92.570312 192.074219 C 92.042969 191.792969 91.535156 191.484375 91.039062 191.15625 C 90.546875 190.824219 90.066406 190.46875 89.609375 190.09375 C 89.148438 189.714844 88.707031 189.316406 88.285156 188.894531 C 87.863281 188.472656 87.464844 188.03125 87.089844 187.574219 C 86.710938 187.113281 86.355469 186.636719 86.023438 186.140625 C 85.695312 185.644531 85.386719 185.136719 85.109375 184.609375 C 84.828125 184.085938 84.570312 183.546875 84.34375 183 C 84.117188 182.449219 83.914062 181.890625 83.742188 181.320312 C 83.570312 180.75 83.425781 180.171875 83.308594 179.589844 C 83.191406 179.003906 83.101562 178.417969 83.042969 177.824219 C 82.984375 177.234375 82.957031 176.640625 82.953125 176.042969 Z M 82.953125 176.042969 " fill-opacity="1" fill-rule="nonzero"/><path fill="#000000" d="M 314.773438 121.5 C 314.773438 120.902344 314.742188 120.308594 314.683594 119.714844 C 314.625 119.125 314.539062 118.535156 314.421875 117.953125 C 314.308594 117.367188 314.164062 116.789062 313.988281 116.21875 C 313.816406 115.652344 313.617188 115.089844 313.390625 114.539062 C 313.160156 113.992188 312.90625 113.453125 312.625 112.925781 C 312.34375 112.402344 312.039062 111.890625 311.707031 111.398438 C 311.378906 110.902344 311.023438 110.425781 310.644531 109.964844 C 310.269531 109.503906 309.867188 109.0625 309.449219 108.640625 C 309.027344 108.222656 308.585938 107.820312 308.125 107.445312 C 307.664062 107.066406 307.1875 106.710938 306.691406 106.378906 C 306.195312 106.050781 305.6875 105.746094 305.160156 105.464844 C 304.636719 105.183594 304.097656 104.929688 303.546875 104.699219 C 303 104.472656 302.4375 104.273438 301.867188 104.097656 C 301.300781 103.925781 300.722656 103.78125 300.136719 103.664062 C 299.554688 103.550781 298.964844 103.460938 298.375 103.402344 C 297.78125 103.347656 297.1875 103.316406 296.589844 103.316406 C 295.996094 103.316406 295.402344 103.347656 294.808594 103.402344 C 294.214844 103.460938 293.628906 103.550781 293.042969 103.664062 C 292.460938 103.78125 291.882812 103.925781 291.3125 104.097656 C 290.742188 104.273438 290.183594 104.472656 289.632812 104.699219 C 289.082031 104.929688 288.546875 105.183594 288.019531 105.464844 C 287.496094 105.746094 286.984375 106.050781 286.488281 106.378906 C 285.996094 106.710938 285.515625 107.066406 285.054688 107.445312 C 284.597656 107.820312 284.15625 108.222656 283.734375 108.640625 C 283.3125 109.0625 282.914062 109.503906 282.535156 109.964844 C 282.160156 110.425781 281.804688 110.902344 281.472656 111.398438 C 281.140625 111.890625 280.835938 112.402344 280.554688 112.925781 C 280.273438 113.453125 280.019531 113.992188 279.792969 114.539062 C 279.566406 115.089844 279.363281 115.652344 279.191406 116.21875 C 279.019531 116.789062 278.875 117.367188 278.757812 117.953125 C 278.640625 118.535156 278.554688 119.125 278.496094 119.714844 C 278.4375 120.308594 278.410156 120.902344 278.410156 121.5 C 278.410156 122.09375 278.4375 122.6875 278.496094 123.28125 C 278.554688 123.875 278.640625 124.460938 278.757812 125.046875 C 278.875 125.628906 279.019531 126.207031 279.191406 126.777344 C 279.363281 127.347656 279.566406 127.90625 279.792969 128.457031 C 280.019531 129.007812 280.273438 129.542969 280.554688 130.070312 C 280.835938 130.59375 281.140625 131.105469 281.472656 131.601562 C 281.804688 132.09375 282.160156 132.574219 282.535156 133.03125 C 282.914062 133.492188 283.3125 133.933594 283.734375 134.355469 C 284.15625 134.777344 284.597656 135.175781 285.054688 135.554688 C 285.515625 135.929688 285.996094 136.285156 286.488281 136.617188 C 286.984375 136.945312 287.496094 137.253906 288.019531 137.535156 C 288.546875 137.8125 289.082031 138.066406 289.632812 138.296875 C 290.183594 138.523438 290.742188 138.722656 291.3125 138.898438 C 291.882812 139.070312 292.460938 139.214844 293.042969 139.332031 C 293.628906 139.445312 294.214844 139.535156 294.808594 139.59375 C 295.402344 139.652344 295.996094 139.679688 296.589844 139.679688 C 297.1875 139.679688 297.78125 139.648438 298.371094 139.589844 C 298.964844 139.53125 299.554688 139.445312 300.136719 139.328125 C 300.71875 139.210938 301.296875 139.066406 301.867188 138.894531 C 302.4375 138.71875 302.996094 138.519531 303.546875 138.289062 C 304.09375 138.0625 304.632812 137.808594 305.15625 137.527344 C 305.683594 137.246094 306.191406 136.941406 306.6875 136.609375 C 307.183594 136.277344 307.660156 135.925781 308.121094 135.546875 C 308.578125 135.167969 309.019531 134.769531 309.441406 134.347656 C 309.863281 133.929688 310.261719 133.488281 310.640625 133.027344 C 311.015625 132.566406 311.371094 132.089844 311.703125 131.59375 C 312.03125 131.101562 312.339844 130.589844 312.621094 130.066406 C 312.902344 129.539062 313.15625 129.003906 313.382812 128.453125 C 313.609375 127.902344 313.8125 127.34375 313.984375 126.773438 C 314.160156 126.203125 314.304688 125.628906 314.421875 125.042969 C 314.535156 124.460938 314.625 123.871094 314.683594 123.28125 C 314.742188 122.6875 314.773438 122.09375 314.773438 121.5 Z M 287.5 121.5 C 287.5 120.902344 287.558594 120.308594 287.675781 119.726562 C 287.792969 119.140625 287.964844 118.570312 288.191406 118.019531 C 288.421875 117.46875 288.699219 116.945312 289.03125 116.449219 C 289.363281 115.953125 289.742188 115.492188 290.164062 115.070312 C 290.585938 114.648438 291.042969 114.269531 291.539062 113.941406 C 292.035156 113.609375 292.558594 113.328125 293.113281 113.097656 C 293.664062 112.871094 294.230469 112.699219 294.816406 112.582031 C 295.402344 112.464844 295.992188 112.40625 296.589844 112.40625 C 297.1875 112.40625 297.777344 112.464844 298.363281 112.582031 C 298.949219 112.699219 299.519531 112.871094 300.070312 113.097656 C 300.621094 113.328125 301.144531 113.609375 301.640625 113.941406 C 302.136719 114.269531 302.597656 114.648438 303.019531 115.070312 C 303.441406 115.492188 303.816406 115.953125 304.148438 116.449219 C 304.480469 116.945312 304.761719 117.46875 304.988281 118.019531 C 305.21875 118.570312 305.390625 119.140625 305.507812 119.726562 C 305.625 120.308594 305.683594 120.902344 305.683594 121.5 C 305.683594 122.09375 305.625 122.6875 305.507812 123.273438 C 305.390625 123.855469 305.21875 124.425781 304.988281 124.976562 C 304.761719 125.527344 304.480469 126.050781 304.148438 126.550781 C 303.816406 127.046875 303.441406 127.503906 303.019531 127.925781 C 302.597656 128.347656 302.136719 128.726562 301.640625 129.058594 C 301.144531 129.390625 300.621094 129.667969 300.070312 129.898438 C 299.519531 130.125 298.949219 130.296875 298.363281 130.414062 C 297.777344 130.53125 297.1875 130.589844 296.589844 130.589844 C 295.996094 130.589844 295.402344 130.53125 294.816406 130.414062 C 294.234375 130.296875 293.664062 130.125 293.113281 129.894531 C 292.5625 129.667969 292.039062 129.386719 291.542969 129.054688 C 291.046875 128.722656 290.585938 128.347656 290.164062 127.925781 C 289.742188 127.503906 289.367188 127.042969 289.035156 126.546875 C 288.703125 126.050781 288.421875 125.527344 288.195312 124.976562 C 287.964844 124.425781 287.792969 123.855469 287.675781 123.269531 C 287.558594 122.6875 287.5 122.09375 287.5 121.5 Z M 287.5 121.5 " fill-opacity="1" fill-rule="nonzero"/><g clip-path="url(#976a59634d)"><path fill="#000000" d="M 317.546875 166.734375 C 327.378906 155.277344 337.5 139.21875 337.5 121.5 C 337.5 120.160156 337.433594 118.820312 337.304688 117.488281 C 337.171875 116.15625 336.976562 114.832031 336.714844 113.515625 C 336.453125 112.203125 336.128906 110.90625 335.738281 109.625 C 335.347656 108.339844 334.898438 107.082031 334.386719 105.84375 C 333.875 104.605469 333.300781 103.394531 332.667969 102.214844 C 332.039062 101.03125 331.351562 99.882812 330.605469 98.769531 C 329.859375 97.65625 329.0625 96.582031 328.214844 95.546875 C 327.363281 94.511719 326.464844 93.519531 325.519531 92.570312 C 324.570312 91.625 323.578125 90.726562 322.542969 89.875 C 321.507812 89.023438 320.433594 88.226562 319.320312 87.484375 C 318.203125 86.738281 317.058594 86.050781 315.875 85.417969 C 314.695312 84.789062 313.484375 84.214844 312.246094 83.703125 C 311.007812 83.191406 309.75 82.738281 308.464844 82.351562 C 307.183594 81.960938 305.886719 81.636719 304.570312 81.375 C 303.257812 81.113281 301.933594 80.917969 300.601562 80.785156 C 299.265625 80.65625 297.929688 80.589844 296.589844 80.589844 C 295.25 80.589844 293.914062 80.65625 292.582031 80.785156 C 291.246094 80.917969 289.925781 81.113281 288.609375 81.375 C 287.296875 81.636719 285.996094 81.960938 284.714844 82.351562 C 283.433594 82.738281 282.171875 83.191406 280.9375 83.703125 C 279.699219 84.214844 278.488281 84.789062 277.304688 85.417969 C 276.125 86.050781 274.976562 86.738281 273.863281 87.484375 C 272.75 88.226562 271.675781 89.023438 270.636719 89.875 C 269.601562 90.726562 268.609375 91.625 267.664062 92.570312 C 266.714844 93.519531 265.816406 94.511719 264.96875 95.546875 C 264.117188 96.582031 263.320312 97.65625 262.578125 98.769531 C 261.832031 99.882812 261.144531 101.03125 260.511719 102.214844 C 259.878906 103.394531 259.308594 104.605469 258.796875 105.84375 C 258.28125 107.082031 257.832031 108.339844 257.441406 109.625 C 257.054688 110.90625 256.730469 112.203125 256.46875 113.515625 C 256.207031 114.832031 256.011719 116.15625 255.878906 117.488281 C 255.746094 118.820312 255.683594 120.160156 255.683594 121.5 C 255.683594 139.21875 265.804688 155.277344 275.632812 166.734375 C 270.839844 169.058594 267.46875 172.140625 265.867188 175.695312 C 265.628906 175.675781 265.4375 175.660156 265.1875 175.636719 C 264.886719 175.613281 264.589844 175.617188 264.296875 175.652344 C 264 175.6875 263.710938 175.75 263.425781 175.839844 C 263.140625 175.933594 262.871094 176.050781 262.609375 176.195312 C 262.347656 176.339844 262.105469 176.507812 261.875 176.699219 C 261.648438 176.894531 261.441406 177.105469 261.257812 177.339844 C 261.070312 177.574219 260.910156 177.824219 260.773438 178.089844 C 260.636719 178.351562 260.527344 178.628906 260.445312 178.914062 C 260.363281 179.203125 260.3125 179.492188 260.285156 179.789062 C 260.261719 180.089844 260.265625 180.382812 260.300781 180.679688 C 260.332031 180.976562 260.394531 181.265625 260.484375 181.550781 C 260.578125 181.835938 260.695312 182.109375 260.839844 182.367188 C 260.984375 182.628906 261.152344 182.875 261.34375 183.101562 C 261.535156 183.328125 261.75 183.535156 261.980469 183.722656 C 262.214844 183.90625 262.464844 184.070312 262.730469 184.207031 C 262.992188 184.34375 263.269531 184.453125 263.554688 184.535156 C 263.84375 184.617188 264.132812 184.671875 264.429688 184.699219 C 264.863281 184.734375 265.214844 184.765625 265.589844 184.796875 C 268.746094 192.996094 281.007812 198.769531 296.589844 198.769531 C 314.730469 198.769531 328.410156 190.953125 328.410156 180.589844 C 328.410156 174.984375 324.433594 170.074219 317.546875 166.734375 Z M 296.589844 89.679688 C 297.632812 89.679688 298.671875 89.734375 299.707031 89.835938 C 300.746094 89.941406 301.773438 90.09375 302.796875 90.296875 C 303.816406 90.5 304.828125 90.753906 305.824219 91.058594 C 306.820312 91.363281 307.800781 91.710938 308.761719 92.113281 C 309.722656 92.511719 310.664062 92.957031 311.582031 93.449219 C 312.5 93.9375 313.394531 94.472656 314.257812 95.054688 C 315.125 95.632812 315.960938 96.253906 316.765625 96.914062 C 317.570312 97.574219 318.34375 98.273438 319.078125 99.011719 C 319.816406 99.746094 320.515625 100.515625 321.175781 101.324219 C 321.835938 102.128906 322.457031 102.964844 323.035156 103.828125 C 323.613281 104.695312 324.148438 105.589844 324.640625 106.507812 C 325.132812 107.425781 325.578125 108.367188 325.976562 109.328125 C 326.375 110.289062 326.726562 111.269531 327.03125 112.265625 C 327.335938 113.261719 327.585938 114.273438 327.792969 115.292969 C 327.996094 116.316406 328.148438 117.34375 328.253906 118.378906 C 328.355469 119.417969 328.40625 120.457031 328.410156 121.5 C 328.410156 145.734375 304.75 167.835938 296.589844 174.742188 C 288.421875 167.847656 264.773438 145.785156 264.773438 121.5 C 264.773438 120.457031 264.824219 119.417969 264.929688 118.378906 C 265.03125 117.34375 265.1875 116.316406 265.390625 115.292969 C 265.59375 114.273438 265.847656 113.261719 266.152344 112.265625 C 266.453125 111.269531 266.804688 110.289062 267.203125 109.328125 C 267.601562 108.367188 268.046875 107.425781 268.539062 106.507812 C 269.03125 105.589844 269.566406 104.695312 270.144531 103.828125 C 270.726562 102.964844 271.34375 102.128906 272.007812 101.324219 C 272.667969 100.515625 273.367188 99.746094 274.101562 99.011719 C 274.839844 98.273438 275.609375 97.574219 276.414062 96.914062 C 277.21875 96.253906 278.054688 95.632812 278.921875 95.054688 C 279.789062 94.472656 280.679688 93.9375 281.597656 93.449219 C 282.515625 92.957031 283.457031 92.511719 284.421875 92.113281 C 285.382812 91.710938 286.363281 91.363281 287.359375 91.058594 C 288.355469 90.753906 289.363281 90.5 290.386719 90.296875 C 291.40625 90.09375 292.4375 89.941406 293.472656 89.835938 C 294.511719 89.734375 295.550781 89.679688 296.589844 89.679688 Z M 296.589844 189.679688 C 282.71875 189.679688 273.863281 184.296875 273.863281 180.589844 C 273.863281 178.585938 276.707031 175.785156 282.164062 173.808594 C 285.839844 177.535156 289.738281 181.007812 293.863281 184.226562 C 294.257812 184.519531 294.6875 184.746094 295.152344 184.902344 C 295.621094 185.058594 296.097656 185.132812 296.589844 185.136719 C 297.082031 185.132812 297.5625 185.058594 298.027344 184.902344 C 298.496094 184.746094 298.925781 184.519531 299.320312 184.226562 C 303.445312 181.007812 307.34375 177.535156 311.015625 173.808594 C 316.476562 175.789062 319.316406 178.589844 319.316406 180.589844 C 319.316406 184.296875 310.464844 189.679688 296.589844 189.679688 Z M 296.589844 189.679688 " fill-opacity="1" fill-rule="nonzero"/></g><g clip-path="url(#176d61f46a)"><path fill="#000000" d="M 151.367188 267.25 C 150.976562 267.226562 150.664062 267.207031 150.320312 267.1875 C 147.949219 260.84375 140.316406 255.609375 128.652344 252.335938 C 145.527344 234.074219 164.773438 206.574219 164.773438 176.042969 C 164.773438 175.003906 164.746094 173.960938 164.695312 172.921875 C 164.644531 171.882812 164.570312 170.84375 164.464844 169.804688 C 164.363281 168.769531 164.238281 167.738281 164.085938 166.707031 C 163.929688 165.675781 163.753906 164.652344 163.550781 163.628906 C 163.347656 162.609375 163.117188 161.589844 162.867188 160.582031 C 162.613281 159.570312 162.335938 158.566406 162.03125 157.570312 C 161.730469 156.574219 161.402344 155.585938 161.054688 154.605469 C 160.703125 153.625 160.328125 152.652344 159.929688 151.691406 C 159.53125 150.730469 159.109375 149.777344 158.664062 148.835938 C 158.21875 147.894531 157.75 146.964844 157.257812 146.046875 C 156.769531 145.128906 156.253906 144.222656 155.71875 143.328125 C 155.183594 142.433594 154.625 141.554688 154.046875 140.6875 C 153.46875 139.824219 152.871094 138.972656 152.25 138.136719 C 151.628906 137.300781 150.988281 136.476562 150.328125 135.671875 C 149.667969 134.867188 148.988281 134.078125 148.289062 133.308594 C 147.589844 132.535156 146.871094 131.78125 146.132812 131.046875 C 145.398438 130.308594 144.644531 129.59375 143.871094 128.890625 C 143.101562 128.191406 142.3125 127.511719 141.507812 126.851562 C 140.703125 126.191406 139.882812 125.550781 139.042969 124.929688 C 138.207031 124.308594 137.355469 123.710938 136.492188 123.132812 C 135.625 122.554688 134.746094 121.996094 133.851562 121.460938 C 132.957031 120.925781 132.054688 120.414062 131.132812 119.921875 C 130.214844 119.429688 129.285156 118.960938 128.34375 118.515625 C 127.402344 118.070312 126.449219 117.648438 125.488281 117.25 C 124.527344 116.851562 123.554688 116.476562 122.574219 116.128906 C 121.59375 115.777344 120.605469 115.449219 119.609375 115.148438 C 118.613281 114.84375 117.609375 114.566406 116.597656 114.316406 C 115.589844 114.0625 114.574219 113.832031 113.550781 113.628906 C 112.53125 113.425781 111.503906 113.25 110.472656 113.097656 C 109.445312 112.945312 108.410156 112.816406 107.375 112.714844 C 106.335938 112.613281 105.300781 112.535156 104.257812 112.484375 C 103.21875 112.433594 102.179688 112.40625 101.136719 112.40625 C 100.09375 112.40625 99.054688 112.433594 98.015625 112.484375 C 96.972656 112.535156 95.933594 112.613281 94.898438 112.714844 C 93.863281 112.816406 92.828125 112.945312 91.800781 113.097656 C 90.769531 113.25 89.742188 113.425781 88.722656 113.628906 C 87.699219 113.832031 86.683594 114.0625 85.675781 114.316406 C 84.664062 114.566406 83.660156 114.84375 82.664062 115.148438 C 81.667969 115.449219 80.679688 115.777344 79.699219 116.128906 C 78.71875 116.476562 77.746094 116.851562 76.785156 117.25 C 75.820312 117.648438 74.871094 118.070312 73.929688 118.515625 C 72.988281 118.960938 72.058594 119.429688 71.136719 119.921875 C 70.21875 120.414062 69.3125 120.925781 68.421875 121.460938 C 67.527344 121.996094 66.648438 122.554688 65.78125 123.132812 C 64.914062 123.710938 64.066406 124.308594 63.226562 124.929688 C 62.390625 125.550781 61.570312 126.191406 60.765625 126.851562 C 59.960938 127.511719 59.171875 128.191406 58.402344 128.890625 C 57.628906 129.59375 56.875 130.308594 56.140625 131.046875 C 55.402344 131.78125 54.683594 132.535156 53.984375 133.308594 C 53.285156 134.078125 52.605469 134.867188 51.945312 135.671875 C 51.285156 136.476562 50.644531 137.300781 50.023438 138.136719 C 49.402344 138.972656 48.804688 139.824219 48.226562 140.6875 C 47.644531 141.554688 47.089844 142.433594 46.554688 143.328125 C 46.019531 144.222656 45.503906 145.128906 45.015625 146.046875 C 44.523438 146.964844 44.054688 147.894531 43.609375 148.835938 C 43.164062 149.777344 42.742188 150.730469 42.34375 151.691406 C 41.945312 152.652344 41.570312 153.625 41.21875 154.605469 C 40.867188 155.585938 40.542969 156.574219 40.238281 157.570312 C 39.9375 158.566406 39.660156 159.570312 39.40625 160.582031 C 39.152344 161.589844 38.925781 162.609375 38.722656 163.628906 C 38.519531 164.652344 38.339844 165.675781 38.1875 166.707031 C 38.035156 167.738281 37.910156 168.769531 37.804688 169.804688 C 37.703125 170.84375 37.628906 171.882812 37.578125 172.921875 C 37.527344 173.960938 37.5 175.003906 37.5 176.042969 C 37.5 206.574219 56.746094 234.074219 73.621094 252.335938 C 59.402344 256.324219 51.136719 263.226562 51.136719 271.5 C 51.136719 286.261719 76.898438 294.226562 101.136719 294.226562 C 122.605469 294.226562 145.226562 287.964844 150.128906 276.28125 C 150.378906 276.296875 150.582031 276.308594 150.855469 276.324219 C 150.941406 276.332031 151.03125 276.332031 151.117188 276.332031 C 151.410156 276.332031 151.699219 276.304688 151.988281 276.246094 C 152.273438 276.191406 152.554688 276.109375 152.824219 275.996094 C 153.097656 275.886719 153.355469 275.75 153.601562 275.589844 C 153.847656 275.429688 154.074219 275.246094 154.285156 275.042969 C 154.492188 274.839844 154.683594 274.617188 154.847656 274.375 C 155.015625 274.136719 155.15625 273.878906 155.273438 273.613281 C 155.394531 273.34375 155.484375 273.066406 155.546875 272.78125 C 155.613281 272.496094 155.648438 272.203125 155.65625 271.914062 C 155.664062 271.621094 155.644531 271.328125 155.597656 271.039062 C 155.546875 270.75 155.472656 270.46875 155.371094 270.195312 C 155.265625 269.917969 155.140625 269.65625 154.984375 269.40625 C 154.832031 269.15625 154.65625 268.925781 154.457031 268.710938 C 154.261719 268.492188 154.042969 268.300781 153.808594 268.125 C 153.570312 267.953125 153.320312 267.800781 153.054688 267.675781 C 152.789062 267.550781 152.515625 267.453125 152.230469 267.382812 C 151.949219 267.308594 151.660156 267.265625 151.367188 267.25 Z M 101.136719 121.5 C 102.921875 121.5 104.703125 121.589844 106.480469 121.765625 C 108.257812 121.945312 110.023438 122.207031 111.773438 122.558594 C 113.523438 122.90625 115.253906 123.339844 116.964844 123.859375 C 118.671875 124.378906 120.351562 124.984375 122 125.667969 C 123.648438 126.351562 125.261719 127.113281 126.835938 127.957031 C 128.410156 128.800781 129.941406 129.71875 131.425781 130.710938 C 132.910156 131.703125 134.34375 132.765625 135.722656 133.898438 C 137.101562 135.03125 138.425781 136.230469 139.6875 137.492188 C 140.949219 138.753906 142.148438 140.078125 143.28125 141.457031 C 144.414062 142.835938 145.476562 144.269531 146.46875 145.753906 C 147.460938 147.238281 148.378906 148.769531 149.222656 150.34375 C 150.066406 151.917969 150.828125 153.53125 151.511719 155.179688 C 152.199219 156.828125 152.800781 158.507812 153.320312 160.21875 C 153.839844 161.925781 154.273438 163.65625 154.625 165.40625 C 154.972656 167.15625 155.238281 168.921875 155.414062 170.699219 C 155.589844 172.476562 155.679688 174.257812 155.683594 176.042969 C 155.683594 218.453125 112.507812 256.4375 101.136719 265.707031 C 89.765625 256.4375 46.589844 218.453125 46.589844 176.042969 C 46.59375 174.257812 46.683594 172.476562 46.859375 170.699219 C 47.035156 168.921875 47.300781 167.15625 47.648438 165.40625 C 48 163.65625 48.433594 161.925781 48.953125 160.21875 C 49.472656 158.507812 50.074219 156.828125 50.757812 155.179688 C 51.445312 153.53125 52.207031 151.917969 53.050781 150.34375 C 53.890625 148.769531 54.808594 147.238281 55.800781 145.753906 C 56.796875 144.269531 57.859375 142.835938 58.992188 141.457031 C 60.125 140.078125 61.324219 138.753906 62.585938 137.492188 C 63.847656 136.230469 65.167969 135.03125 66.550781 133.898438 C 67.929688 132.765625 69.363281 131.703125 70.847656 130.710938 C 72.332031 129.71875 73.863281 128.800781 75.4375 127.957031 C 77.011719 127.113281 78.621094 126.351562 80.273438 125.667969 C 81.921875 124.984375 83.601562 124.378906 85.308594 123.859375 C 87.019531 123.339844 88.75 122.90625 90.5 122.558594 C 92.25 122.207031 94.015625 121.945312 95.792969 121.765625 C 97.570312 121.589844 99.351562 121.5 101.136719 121.5 Z M 101.136719 285.132812 C 76.164062 285.132812 60.226562 277.058594 60.226562 271.5 C 60.226562 267.855469 67.535156 262.742188 80.992188 259.925781 C 86.484375 265.363281 92.296875 270.4375 98.425781 275.144531 C 98.816406 275.4375 99.242188 275.660156 99.707031 275.8125 C 100.171875 275.96875 100.648438 276.042969 101.136719 276.042969 C 101.625 276.042969 102.101562 275.96875 102.566406 275.8125 C 103.027344 275.660156 103.457031 275.4375 103.847656 275.144531 C 109.976562 270.4375 115.789062 265.363281 121.28125 259.925781 C 134.738281 262.742188 142.046875 267.855469 142.046875 271.5 C 142.046875 277.058594 126.109375 285.132812 101.136719 285.132812 Z M 101.136719 285.132812 " fill-opacity="1" fill-rule="nonzero"/></g><path fill="#000000" d="M 192.953125 195.132812 C 194.035156 193.339844 195.488281 191.929688 197.316406 190.90625 C 197.367188 190.859375 197.429688 190.828125 197.5 190.816406 L 197.546875 190.769531 C 198.214844 190.355469 198.738281 189.804688 199.121094 189.117188 C 199.5 188.429688 199.6875 187.691406 199.679688 186.90625 C 199.671875 186.0625 199.460938 185.273438 199.046875 184.542969 C 198.886719 184.292969 198.707031 184.058594 198.503906 183.84375 C 198.296875 183.628906 198.078125 183.4375 197.835938 183.265625 C 197.597656 183.089844 197.34375 182.941406 197.074219 182.820312 C 196.804688 182.695312 196.527344 182.597656 196.238281 182.527344 C 195.953125 182.453125 195.660156 182.410156 195.367188 182.394531 C 195.070312 182.378906 194.777344 182.390625 194.484375 182.433594 C 194.191406 182.472656 193.902344 182.539062 193.625 182.636719 C 193.34375 182.730469 193.074219 182.851562 192.816406 182.996094 C 189.226562 185.179688 186.589844 187.769531 184.953125 190.816406 C 184.859375 190.988281 184.777344 191.164062 184.707031 191.347656 C 184.636719 191.53125 184.578125 191.71875 184.53125 191.90625 C 184.488281 192.097656 184.453125 192.289062 184.433594 192.484375 C 184.410156 192.679688 184.402344 192.875 184.40625 193.070312 C 184.410156 193.265625 184.425781 193.460938 184.457031 193.652344 C 184.484375 193.847656 184.527344 194.039062 184.582031 194.226562 C 184.636719 194.414062 184.703125 194.597656 184.777344 194.777344 C 184.855469 194.957031 184.945312 195.128906 185.046875 195.296875 C 185.148438 195.464844 185.257812 195.628906 185.378906 195.78125 C 185.5 195.933594 185.632812 196.078125 185.773438 196.214844 C 185.914062 196.351562 186.0625 196.480469 186.21875 196.597656 C 186.375 196.714844 186.539062 196.820312 186.707031 196.917969 C 186.878906 197.011719 187.054688 197.097656 187.238281 197.167969 C 187.417969 197.242188 187.605469 197.304688 187.792969 197.351562 C 187.984375 197.402344 188.175781 197.4375 188.367188 197.460938 C 188.5625 197.488281 188.757812 197.5 188.953125 197.496094 C 189.785156 197.492188 190.558594 197.277344 191.273438 196.855469 C 191.988281 196.433594 192.546875 195.859375 192.953125 195.132812 Z M 192.953125 195.132812 " fill-opacity="1" fill-rule="nonzero"/><path fill="#000000" d="M 177.5 267.953125 L 177.226562 267.953125 C 174.40625 267.953125 171.542969 267.953125 168.773438 267.90625 L 168.679688 267.90625 C 168.386719 267.910156 168.09375 267.9375 167.808594 267.996094 C 167.519531 268.054688 167.238281 268.136719 166.964844 268.25 C 166.695312 268.363281 166.433594 268.5 166.1875 268.660156 C 165.945312 268.824219 165.714844 269.007812 165.503906 269.214844 C 165.296875 269.417969 165.105469 269.644531 164.941406 269.886719 C 164.773438 270.128906 164.632812 270.382812 164.511719 270.652344 C 164.394531 270.921875 164.304688 271.203125 164.242188 271.488281 C 164.179688 271.777344 164.144531 272.066406 164.136719 272.363281 C 164.128906 272.660156 164.152344 272.953125 164.207031 273.246094 C 164.257812 273.539062 164.339844 273.824219 164.449219 274.101562 C 164.554688 274.378906 164.691406 274.640625 164.851562 274.890625 C 165.015625 275.140625 165.199219 275.371094 165.40625 275.585938 C 165.613281 275.800781 165.839844 275.992188 166.082031 276.160156 C 166.328125 276.328125 166.585938 276.472656 166.859375 276.589844 C 167.132812 276.707031 167.417969 276.792969 167.707031 276.855469 C 168 276.917969 168.292969 276.949219 168.589844 276.953125 C 171.453125 277.042969 174.316406 277.042969 177.226562 277.042969 L 177.453125 277.042969 C 177.753906 277.042969 178.046875 277.011719 178.339844 276.957031 C 178.628906 276.898438 178.914062 276.8125 179.1875 276.699219 C 179.464844 276.585938 179.726562 276.445312 179.972656 276.28125 C 180.21875 276.117188 180.449219 275.929688 180.660156 275.71875 C 180.871094 275.507812 181.058594 275.28125 181.226562 275.035156 C 181.390625 274.785156 181.53125 274.527344 181.648438 274.25 C 181.761719 273.976562 181.847656 273.695312 181.910156 273.402344 C 181.96875 273.109375 181.996094 272.816406 182 272.519531 C 182 272.222656 181.972656 271.925781 181.917969 271.636719 C 181.859375 271.34375 181.777344 271.058594 181.664062 270.785156 C 181.550781 270.507812 181.414062 270.246094 181.25 269.996094 C 181.085938 269.75 180.902344 269.519531 180.691406 269.308594 C 180.484375 269.09375 180.253906 268.90625 180.007812 268.738281 C 179.761719 268.570312 179.503906 268.429688 179.230469 268.3125 C 178.957031 268.195312 178.671875 268.109375 178.382812 268.046875 C 178.089844 267.988281 177.796875 267.953125 177.5 267.953125 Z M 177.5 267.953125 " fill-opacity="1" fill-rule="nonzero"/><path fill="#000000" d="M 267.769531 235.632812 L 267.769531 235.585938 C 267.535156 235.042969 267.210938 234.558594 266.789062 234.136719 C 266.371094 233.71875 265.886719 233.390625 265.34375 233.152344 C 264.796875 232.917969 264.230469 232.789062 263.636719 232.769531 C 263.042969 232.75 262.464844 232.84375 261.90625 233.042969 C 261.628906 233.152344 261.359375 233.285156 261.109375 233.445312 C 260.855469 233.609375 260.621094 233.792969 260.402344 234 C 260.1875 234.207031 259.992188 234.433594 259.820312 234.679688 C 259.648438 234.925781 259.503906 235.183594 259.382812 235.457031 C 259.261719 235.734375 259.167969 236.015625 259.105469 236.308594 C 259.042969 236.601562 259.007812 236.898438 259 237.199219 C 258.996094 237.5 259.019531 237.796875 259.070312 238.089844 C 259.125 238.386719 259.207031 238.671875 259.316406 238.953125 C 259.949219 240.652344 260.253906 242.410156 260.226562 244.226562 C 260.238281 244.621094 260.222656 245.015625 260.179688 245.40625 C 260.148438 245.703125 260.148438 246 260.171875 246.296875 C 260.199219 246.597656 260.257812 246.886719 260.339844 247.175781 C 260.425781 247.460938 260.539062 247.738281 260.675781 248 C 260.816406 248.265625 260.976562 248.515625 261.167969 248.746094 C 261.355469 248.976562 261.5625 249.191406 261.792969 249.382812 C 262.023438 249.570312 262.269531 249.738281 262.53125 249.882812 C 262.792969 250.023438 263.066406 250.140625 263.351562 250.226562 C 263.636719 250.316406 263.929688 250.375 264.226562 250.40625 L 264.683594 250.40625 C 265.246094 250.410156 265.792969 250.3125 266.324219 250.109375 C 266.851562 249.910156 267.324219 249.621094 267.746094 249.242188 C 268.167969 248.863281 268.503906 248.421875 268.757812 247.917969 C 269.015625 247.414062 269.171875 246.878906 269.226562 246.316406 C 269.273438 245.636719 269.316406 244.90625 269.316406 244.226562 C 269.335938 241.335938 268.847656 238.53125 267.863281 235.816406 C 267.816406 235.769531 267.816406 235.679688 267.769531 235.632812 Z M 267.769531 235.632812 " fill-opacity="1" fill-rule="nonzero"/><path fill="#000000" d="M 252.453125 255.769531 C 250.183594 257.171875 247.804688 258.351562 245.316406 259.316406 C 245.042969 259.429688 244.777344 259.566406 244.53125 259.730469 C 244.28125 259.894531 244.050781 260.082031 243.839844 260.289062 C 243.625 260.5 243.4375 260.726562 243.269531 260.972656 C 243.097656 261.21875 242.957031 261.476562 242.839844 261.75 C 242.71875 262.023438 242.628906 262.304688 242.566406 262.597656 C 242.503906 262.886719 242.46875 263.183594 242.464844 263.480469 C 242.457031 263.777344 242.480469 264.074219 242.53125 264.367188 C 242.585938 264.660156 242.664062 264.945312 242.769531 265.222656 C 242.941406 265.648438 243.167969 266.035156 243.453125 266.390625 C 243.738281 266.746094 244.066406 267.050781 244.445312 267.304688 C 244.820312 267.5625 245.226562 267.757812 245.664062 267.890625 C 246.097656 268.023438 246.542969 268.089844 247 268.089844 C 247.582031 268.097656 248.144531 267.992188 248.683594 267.769531 C 251.695312 266.605469 254.574219 265.164062 257.316406 263.453125 C 257.96875 263.035156 258.480469 262.488281 258.851562 261.8125 C 259.222656 261.132812 259.410156 260.40625 259.410156 259.632812 C 259.40625 258.75 259.179688 257.933594 258.726562 257.179688 C 258.5625 256.929688 258.375 256.703125 258.167969 256.492188 C 257.960938 256.28125 257.734375 256.089844 257.488281 255.921875 C 257.246094 255.753906 256.988281 255.609375 256.714844 255.492188 C 256.441406 255.371094 256.164062 255.28125 255.875 255.214844 C 255.582031 255.152344 255.289062 255.113281 254.996094 255.105469 C 254.699219 255.097656 254.402344 255.117188 254.109375 255.164062 C 253.816406 255.210938 253.53125 255.285156 253.253906 255.386719 C 252.976562 255.492188 252.707031 255.617188 252.453125 255.769531 Z M 252.453125 255.769531 " fill-opacity="1" fill-rule="nonzero"/><path fill="#000000" d="M 203.542969 267.089844 C 200.636719 267.316406 197.726562 267.453125 194.910156 267.585938 C 194.609375 267.597656 194.3125 267.636719 194.023438 267.703125 C 193.730469 267.769531 193.449219 267.867188 193.175781 267.992188 C 192.902344 268.117188 192.644531 268.265625 192.402344 268.441406 C 192.160156 268.617188 191.9375 268.816406 191.734375 269.035156 C 191.53125 269.253906 191.351562 269.492188 191.195312 269.75 C 191.039062 270.003906 190.910156 270.273438 190.808594 270.554688 C 190.707031 270.835938 190.632812 271.125 190.589844 271.421875 C 190.542969 271.71875 190.53125 272.015625 190.546875 272.316406 C 190.554688 272.605469 190.59375 272.894531 190.660156 273.175781 C 190.726562 273.460938 190.816406 273.738281 190.9375 274.003906 C 191.054688 274.269531 191.199219 274.519531 191.367188 274.757812 C 191.535156 274.996094 191.722656 275.21875 191.933594 275.417969 C 192.144531 275.621094 192.371094 275.800781 192.617188 275.957031 C 192.859375 276.117188 193.117188 276.25 193.390625 276.355469 C 193.660156 276.464844 193.9375 276.546875 194.222656 276.601562 C 194.511719 276.652344 194.800781 276.679688 195.089844 276.679688 L 195.273438 276.679688 C 198.410156 276.542969 201.410156 276.359375 204.179688 276.179688 C 204.753906 276.132812 205.296875 275.984375 205.816406 275.734375 C 206.332031 275.484375 206.785156 275.148438 207.179688 274.726562 C 207.570312 274.308594 207.871094 273.828125 208.082031 273.296875 C 208.292969 272.761719 208.402344 272.207031 208.40625 271.632812 L 208.40625 271.316406 C 208.386719 271.019531 208.335938 270.726562 208.257812 270.4375 C 208.175781 270.148438 208.070312 269.871094 207.9375 269.601562 C 207.804688 269.335938 207.644531 269.082031 207.460938 268.847656 C 207.277344 268.609375 207.074219 268.394531 206.847656 268.199219 C 206.621094 268.003906 206.378906 267.832031 206.121094 267.679688 C 205.863281 267.53125 205.589844 267.410156 205.304688 267.316406 C 205.023438 267.21875 204.734375 267.152344 204.4375 267.117188 C 204.140625 267.078125 203.84375 267.066406 203.542969 267.089844 Z M 203.542969 267.089844 " fill-opacity="1" fill-rule="nonzero"/><path fill="#000000" d="M 229.179688 263.859375 C 226.679688 264.359375 223.953125 264.816406 220.726562 265.316406 C 220.128906 265.382812 219.574219 265.570312 219.058594 265.882812 C 218.542969 266.191406 218.113281 266.59375 217.769531 267.089844 C 217.402344 267.566406 217.144531 268.097656 216.996094 268.683594 C 216.84375 269.265625 216.816406 269.855469 216.90625 270.453125 C 216.988281 270.992188 217.15625 271.5 217.421875 271.976562 C 217.683594 272.457031 218.023438 272.871094 218.433594 273.226562 C 218.847656 273.582031 219.3125 273.851562 219.824219 274.039062 C 220.335938 274.226562 220.863281 274.320312 221.410156 274.316406 C 221.621094 274.320312 221.832031 274.304688 222.042969 274.269531 C 225.042969 273.863281 228.046875 273.359375 230.953125 272.769531 C 231.464844 272.664062 231.945312 272.480469 232.394531 272.210938 C 232.839844 271.945312 233.230469 271.609375 233.566406 271.210938 C 233.898438 270.808594 234.160156 270.363281 234.34375 269.875 C 234.523438 269.386719 234.621094 268.882812 234.632812 268.363281 C 234.628906 268.054688 234.597656 267.753906 234.542969 267.453125 C 234.480469 267.160156 234.394531 266.875 234.277344 266.601562 C 234.160156 266.328125 234.019531 266.066406 233.851562 265.816406 C 233.683594 265.570312 233.496094 265.339844 233.285156 265.128906 C 233.070312 264.917969 232.84375 264.730469 232.59375 264.566406 C 232.347656 264.398438 232.085938 264.257812 231.808594 264.140625 C 231.53125 264.027344 231.25 263.9375 230.957031 263.878906 C 230.664062 263.816406 230.367188 263.785156 230.070312 263.785156 C 229.769531 263.78125 229.476562 263.808594 229.179688 263.859375 Z M 229.179688 263.859375 " fill-opacity="1" fill-rule="nonzero"/><path fill="#000000" d="M 199.769531 217.585938 C 200.304688 217.59375 200.820312 217.507812 201.324219 217.335938 C 201.824219 217.160156 202.285156 216.902344 202.695312 216.566406 C 203.109375 216.230469 203.449219 215.832031 203.722656 215.375 C 203.996094 214.917969 204.183594 214.429688 204.28125 213.90625 C 204.382812 213.382812 204.390625 212.859375 204.304688 212.332031 C 204.222656 211.808594 204.050781 211.3125 203.792969 210.847656 C 203.535156 210.382812 203.203125 209.976562 202.800781 209.625 C 202.398438 209.277344 201.949219 209.007812 201.453125 208.816406 C 199.152344 208 197.046875 206.835938 195.136719 205.316406 C 194.90625 205.128906 194.660156 204.964844 194.398438 204.828125 C 194.136719 204.6875 193.863281 204.574219 193.582031 204.484375 C 193.300781 204.394531 193.011719 204.335938 192.714844 204.300781 C 192.421875 204.269531 192.125 204.265625 191.832031 204.289062 C 191.535156 204.308594 191.246094 204.359375 190.960938 204.4375 C 190.675781 204.519531 190.398438 204.621094 190.132812 204.753906 C 189.867188 204.882812 189.617188 205.039062 189.378906 205.21875 C 189.144531 205.394531 188.925781 205.59375 188.726562 205.816406 C 188.535156 206.042969 188.363281 206.285156 188.21875 206.546875 C 188.070312 206.808594 187.953125 207.078125 187.859375 207.363281 C 187.765625 207.644531 187.703125 207.9375 187.667969 208.234375 C 187.632812 208.53125 187.625 208.828125 187.648438 209.125 C 187.671875 209.421875 187.722656 209.714844 187.804688 210 C 187.886719 210.289062 187.992188 210.566406 188.128906 210.832031 C 188.265625 211.097656 188.425781 211.347656 188.609375 211.582031 C 188.792969 211.816406 189 212.03125 189.226562 212.226562 C 191.90625 214.421875 194.875 216.105469 198.136719 217.269531 C 198.660156 217.488281 199.203125 217.59375 199.769531 217.585938 Z M 199.769531 217.585938 " fill-opacity="1" fill-rule="nonzero"/><path fill="#000000" d="M 224.726562 223.5 C 225 223.535156 225.269531 223.550781 225.542969 223.542969 C 226.109375 223.539062 226.652344 223.433594 227.179688 223.222656 C 227.703125 223.015625 228.171875 222.71875 228.589844 222.335938 C 229.003906 221.953125 229.335938 221.507812 229.582031 221 C 229.832031 220.492188 229.980469 219.957031 230.027344 219.394531 C 230.074219 218.832031 230.019531 218.28125 229.863281 217.738281 C 229.707031 217.195312 229.453125 216.699219 229.113281 216.25 C 228.769531 215.800781 228.355469 215.429688 227.875 215.136719 C 227.394531 214.839844 226.875 214.644531 226.320312 214.542969 L 224.179688 214.179688 C 221.910156 213.769531 219.816406 213.363281 217.679688 212.996094 C 217.386719 212.941406 217.09375 212.914062 216.796875 212.917969 C 216.496094 212.917969 216.203125 212.949219 215.910156 213.011719 C 215.621094 213.070312 215.335938 213.15625 215.0625 213.273438 C 214.789062 213.386719 214.527344 213.53125 214.28125 213.695312 C 214.035156 213.863281 213.804688 214.050781 213.597656 214.261719 C 213.386719 214.476562 213.199219 214.703125 213.035156 214.953125 C 212.871094 215.199219 212.730469 215.460938 212.617188 215.738281 C 212.503906 216.011719 212.417969 216.296875 212.363281 216.589844 C 212.324219 216.859375 212.3125 217.132812 212.316406 217.40625 C 212.304688 217.9375 212.382812 218.457031 212.558594 218.964844 C 212.730469 219.46875 212.984375 219.925781 213.324219 220.339844 C 213.660156 220.753906 214.0625 221.09375 214.519531 221.363281 C 214.980469 221.632812 215.472656 221.8125 216 221.90625 C 218.632812 222.40625 221.316406 222.90625 223.90625 223.359375 Z M 224.726562 223.5 " fill-opacity="1" fill-rule="nonzero"/><path fill="#000000" d="M 246.816406 183.769531 C 247.113281 183.765625 247.40625 183.734375 247.699219 183.675781 C 247.988281 183.613281 248.269531 183.527344 248.542969 183.414062 C 248.820312 183.300781 249.078125 183.164062 249.328125 183 C 249.574219 182.835938 249.804688 182.648438 250.015625 182.441406 C 250.226562 182.234375 250.417969 182.007812 250.585938 181.765625 C 250.753906 181.519531 250.898438 181.261719 251.019531 180.992188 C 251.136719 180.71875 251.230469 180.4375 251.296875 180.148438 C 251.363281 179.859375 251.398438 179.566406 251.410156 179.269531 L 251.410156 179.179688 C 251.40625 178.886719 251.375 178.597656 251.3125 178.3125 C 251.253906 178.023438 251.167969 177.746094 251.054688 177.476562 C 250.941406 177.207031 250.804688 176.949219 250.640625 176.707031 C 250.476562 176.464844 250.292969 176.238281 250.089844 176.03125 C 249.882812 175.824219 249.660156 175.636719 249.417969 175.472656 C 249.175781 175.308594 248.921875 175.167969 248.652344 175.050781 C 248.382812 174.933594 248.105469 174.84375 247.820312 174.78125 C 247.535156 174.71875 247.246094 174.6875 246.953125 174.679688 C 244.769531 174.585938 242.636719 174.585938 240.5 174.585938 L 238 174.585938 C 237.699219 174.589844 237.40625 174.621094 237.113281 174.683594 C 236.820312 174.746094 236.539062 174.835938 236.261719 174.953125 C 235.988281 175.066406 235.726562 175.210938 235.480469 175.378906 C 235.234375 175.546875 235.007812 175.738281 234.796875 175.953125 C 234.589844 176.164062 234.402344 176.394531 234.238281 176.644531 C 234.078125 176.894531 233.9375 177.160156 233.828125 177.4375 C 233.714844 177.710938 233.632812 177.996094 233.578125 178.292969 C 233.523438 178.585938 233.496094 178.878906 233.5 179.179688 C 233.503906 179.476562 233.535156 179.773438 233.59375 180.066406 C 233.65625 180.355469 233.746094 180.640625 233.863281 180.914062 C 233.980469 181.1875 234.121094 181.449219 234.289062 181.695312 C 234.460938 181.941406 234.648438 182.171875 234.863281 182.378906 C 235.074219 182.589844 235.308594 182.773438 235.558594 182.9375 C 235.808594 183.101562 236.070312 183.238281 236.347656 183.351562 C 236.625 183.460938 236.910156 183.546875 237.203125 183.601562 C 237.496094 183.65625 237.792969 183.683594 238.089844 183.679688 C 241 183.632812 243.90625 183.679688 246.726562 183.769531 Z M 246.816406 183.769531 " fill-opacity="1" fill-rule="nonzero"/><path fill="#000000" d="M 220.953125 184.589844 C 221.515625 184.53125 222.042969 184.375 222.546875 184.117188 C 223.046875 183.859375 223.484375 183.523438 223.859375 183.101562 C 224.234375 182.679688 224.519531 182.207031 224.714844 181.679688 C 224.914062 181.152344 225.007812 180.605469 225 180.042969 L 225 179.589844 C 224.964844 179.292969 224.90625 179.003906 224.816406 178.71875 C 224.722656 178.433594 224.609375 178.160156 224.464844 177.898438 C 224.320312 177.640625 224.152344 177.394531 223.960938 177.164062 C 223.773438 176.9375 223.558594 176.726562 223.328125 176.539062 C 223.097656 176.351562 222.847656 176.191406 222.585938 176.050781 C 222.324219 175.910156 222.046875 175.800781 221.761719 175.714844 C 221.476562 175.628906 221.1875 175.570312 220.890625 175.542969 C 220.59375 175.511719 220.296875 175.511719 220 175.542969 C 216.773438 175.90625 213.726562 176.316406 210.910156 176.859375 C 210.351562 176.964844 209.835938 177.164062 209.351562 177.460938 C 208.871094 177.757812 208.460938 178.132812 208.117188 178.582031 C 207.777344 179.03125 207.527344 179.53125 207.375 180.074219 C 207.21875 180.617188 207.164062 181.167969 207.214844 181.734375 C 207.265625 182.296875 207.417969 182.832031 207.667969 183.335938 C 207.921875 183.84375 208.253906 184.289062 208.671875 184.667969 C 209.089844 185.050781 209.558594 185.34375 210.085938 185.550781 C 210.613281 185.757812 211.160156 185.859375 211.726562 185.859375 C 212.015625 185.851562 212.304688 185.824219 212.589844 185.769531 C 215.179688 185.316406 218 184.90625 220.953125 184.589844 Z M 220.953125 184.589844 " fill-opacity="1" fill-rule="nonzero"/><path fill="#000000" d="M 251.046875 230.226562 C 251.5625 230.222656 252.066406 230.136719 252.558594 229.960938 C 253.046875 229.789062 253.492188 229.539062 253.894531 229.210938 C 254.296875 228.886719 254.636719 228.5 254.90625 228.058594 C 255.179688 227.617188 255.367188 227.140625 255.476562 226.636719 C 255.585938 226.128906 255.605469 225.617188 255.542969 225.101562 C 255.476562 224.585938 255.324219 224.097656 255.089844 223.636719 C 254.855469 223.171875 254.554688 222.761719 254.179688 222.402344 C 253.804688 222.042969 253.378906 221.757812 252.90625 221.542969 C 250.109375 220.289062 247.230469 219.261719 244.273438 218.449219 C 244.1875 218.402344 244.097656 218.371094 244 218.363281 L 243.953125 218.363281 C 243.667969 218.285156 243.375 218.238281 243.082031 218.214844 C 242.785156 218.195312 242.488281 218.203125 242.195312 218.242188 C 241.902344 218.277344 241.613281 218.34375 241.332031 218.433594 C 241.050781 218.527344 240.777344 218.648438 240.519531 218.792969 C 240.261719 218.9375 240.019531 219.105469 239.792969 219.296875 C 239.566406 219.488281 239.363281 219.703125 239.175781 219.933594 C 238.992188 220.164062 238.832031 220.414062 238.695312 220.675781 C 238.558594 220.941406 238.445312 221.214844 238.363281 221.5 C 238.273438 221.902344 238.226562 222.3125 238.226562 222.726562 C 238.222656 223.21875 238.296875 223.699219 238.449219 224.167969 C 238.601562 224.636719 238.828125 225.066406 239.125 225.460938 C 239.417969 225.855469 239.769531 226.191406 240.175781 226.472656 C 240.585938 226.75 241.023438 226.957031 241.5 227.089844 C 244.128906 227.808594 246.6875 228.714844 249.179688 229.816406 C 249.773438 230.089844 250.394531 230.226562 251.046875 230.226562 Z M 251.046875 230.226562 " fill-opacity="1" fill-rule="nonzero"/></svg>