<svg xmlns="http://www.w3.org/2000/svg" xmlns:xlink="http://www.w3.org/1999/xlink" width="500" zoomAndPan="magnify" viewBox="0 0 375 374.999991" height="500" preserveAspectRatio="xMidYMid meet" version="1.0"><defs><clipPath id="a95e8a920f"><path d="M 118.652344 177.226562 L 128.925781 177.226562 L 128.925781 187.5 L 118.652344 187.5 Z M 118.652344 177.226562 " clip-rule="nonzero"/></clipPath><clipPath id="356cb58d5c"><path d="M 123.789062 177.226562 C 120.953125 177.226562 118.652344 179.523438 118.652344 182.363281 C 118.652344 185.199219 120.953125 187.5 123.789062 187.5 C 126.625 187.5 128.925781 185.199219 128.925781 182.363281 C 128.925781 179.523438 126.625 177.226562 123.789062 177.226562 Z M 123.789062 177.226562 " clip-rule="nonzero"/></clipPath><clipPath id="0f6e604efd"><path d="M 37.5 85 L 337.5 85 L 337.5 290 L 37.5 290 Z M 37.5 85 " clip-rule="nonzero"/></clipPath></defs><g clip-path="url(#a95e8a920f)"><g clip-path="url(#356cb58d5c)"><path fill="#1c1b2f" d="M 118.652344 177.226562 L 128.925781 177.226562 L 128.925781 187.5 L 118.652344 187.5 Z M 118.652344 177.226562 " fill-opacity="1" fill-rule="nonzero"/></g></g><g clip-path="url(#0f6e604efd)"><path fill="#1c1b2f" d="M 127.097656 85.976562 C 114.28125 86.277344 103.601562 96.195312 103.601562 108.644531 C 103.601562 111.523438 104.746094 113.539062 105.609375 115.808594 L 73.953125 115.808594 C 73.5625 115.808594 73.171875 115.847656 72.789062 115.925781 C 72.402344 116 72.03125 116.113281 71.667969 116.265625 C 71.304688 116.414062 70.960938 116.597656 70.632812 116.816406 C 70.308594 117.035156 70.007812 117.285156 69.730469 117.5625 C 69.449219 117.839844 69.203125 118.140625 68.984375 118.464844 C 68.765625 118.792969 68.582031 119.136719 68.433594 119.5 C 68.28125 119.863281 68.167969 120.234375 68.09375 120.621094 C 68.015625 121.003906 67.976562 121.394531 67.976562 121.785156 L 67.976562 160.503906 L 64.394531 161.472656 L 64.054688 161.613281 C 59.496094 163.445312 55.875 166.722656 53.246094 170.644531 L 39.230469 189.972656 C 39 190.292969 38.800781 190.628906 38.636719 190.988281 C 38.472656 191.34375 38.347656 191.714844 38.253906 192.09375 C 38.164062 192.476562 38.109375 192.863281 38.097656 193.257812 C 38.082031 193.648438 38.105469 194.039062 38.167969 194.429688 C 38.230469 194.816406 38.328125 195.195312 38.464844 195.5625 C 38.601562 195.929688 38.773438 196.28125 38.980469 196.617188 C 39.183594 196.949219 39.421875 197.261719 39.6875 197.550781 C 39.957031 197.835938 40.25 198.097656 40.566406 198.328125 C 40.886719 198.554688 41.222656 198.753906 41.582031 198.917969 C 41.9375 199.082031 42.308594 199.207031 42.691406 199.296875 C 43.070312 199.390625 43.460938 199.441406 43.851562 199.457031 C 44.246094 199.46875 44.632812 199.445312 45.023438 199.382812 C 45.410156 199.320312 45.789062 199.21875 46.15625 199.082031 C 46.523438 198.945312 46.875 198.773438 47.210938 198.566406 C 47.542969 198.363281 47.855469 198.125 48.140625 197.855469 C 48.429688 197.589844 48.6875 197.296875 48.917969 196.976562 L 63.121094 177.378906 L 63.179688 177.285156 C 64.644531 175.101562 66.097656 174.050781 67.976562 173.167969 L 67.976562 207.132812 L 83.351562 217.378906 L 116.019531 189.71875 L 116.066406 189.671875 C 118.804688 187.234375 122.605469 187.445312 125.183594 190.195312 L 125.265625 190.289062 L 125.359375 190.382812 C 128.257812 193.21875 128.582031 198.042969 125.964844 201.679688 L 125.929688 201.726562 L 94.21875 247.621094 C 89.117188 254.628906 81.863281 259.269531 73.824219 261.222656 L 73.730469 261.242188 L 42.484375 269.894531 C 42.089844 269.980469 41.707031 270.109375 41.339844 270.273438 C 40.96875 270.441406 40.621094 270.640625 40.292969 270.878906 C 39.964844 271.113281 39.664062 271.382812 39.386719 271.679688 C 39.113281 271.976562 38.871094 272.300781 38.664062 272.648438 C 38.457031 272.996094 38.285156 273.359375 38.148438 273.742188 C 38.015625 274.125 37.917969 274.515625 37.863281 274.917969 C 37.808594 275.316406 37.796875 275.71875 37.824219 276.125 C 37.851562 276.527344 37.917969 276.925781 38.023438 277.316406 C 38.132812 277.707031 38.277344 278.082031 38.460938 278.441406 C 38.648438 278.804688 38.863281 279.140625 39.117188 279.457031 C 39.371094 279.773438 39.652344 280.0625 39.964844 280.320312 C 40.277344 280.582031 40.609375 280.804688 40.96875 280.996094 C 41.324219 281.1875 41.695312 281.339844 42.085938 281.457031 C 42.472656 281.570312 42.867188 281.644531 43.273438 281.679688 C 43.675781 281.714844 44.078125 281.710938 44.480469 281.664062 C 44.882812 281.617188 45.277344 281.527344 45.660156 281.402344 L 76.640625 272.835938 C 85.453125 270.695312 93.613281 266.039062 100.03125 259.238281 L 105.609375 259.238281 C 104.746094 261.507812 103.601562 263.523438 103.601562 266.402344 C 103.601562 280.632812 117.5625 291.5625 132.710938 288.589844 C 141.851562 286.824219 149.070312 279.769531 151.046875 270.734375 C 152.050781 266.613281 151.335938 262.773438 150.054688 259.238281 L 219.15625 259.238281 C 218.292969 261.507812 217.148438 263.523438 217.148438 266.402344 C 217.148438 280.632812 231.109375 291.5625 246.257812 288.589844 C 255.394531 286.824219 262.617188 279.769531 264.59375 270.734375 C 265.597656 266.613281 264.878906 262.773438 263.601562 259.238281 L 274.980469 259.238281 C 281.398438 266.035156 289.550781 270.695312 298.359375 272.835938 L 329.328125 281.402344 C 329.710938 281.523438 330.101562 281.605469 330.5 281.648438 C 330.902344 281.695312 331.300781 281.695312 331.699219 281.660156 C 332.101562 281.621094 332.492188 281.542969 332.878906 281.429688 C 333.261719 281.3125 333.632812 281.15625 333.984375 280.964844 C 334.339844 280.777344 334.671875 280.550781 334.980469 280.292969 C 335.289062 280.035156 335.566406 279.75 335.816406 279.433594 C 336.070312 279.121094 336.285156 278.785156 336.46875 278.425781 C 336.652344 278.070312 336.796875 277.695312 336.902344 277.308594 C 337.011719 276.921875 337.078125 276.527344 337.105469 276.125 C 337.136719 275.726562 337.125 275.324219 337.070312 274.925781 C 337.019531 274.527344 336.925781 274.140625 336.796875 273.757812 C 336.664062 273.378906 336.496094 273.015625 336.292969 272.667969 C 336.085938 272.324219 335.851562 272 335.582031 271.703125 C 335.3125 271.40625 335.015625 271.136719 334.691406 270.898438 C 334.367188 270.660156 334.023438 270.453125 333.660156 270.285156 C 333.292969 270.117188 332.917969 269.984375 332.523438 269.894531 L 301.265625 261.242188 L 301.175781 261.222656 C 293.136719 259.269531 285.882812 254.617188 280.78125 247.609375 L 249.070312 201.726562 L 249.035156 201.679688 C 246.421875 198.054688 246.757812 193.207031 249.652344 190.371094 L 249.734375 190.277344 L 249.828125 190.183594 C 252.40625 187.433594 256.191406 187.21875 258.933594 189.660156 L 258.992188 189.71875 L 291.648438 217.378906 L 307.023438 207.132812 L 307.023438 173.167969 C 308.898438 174.042969 310.351562 175.109375 311.820312 177.296875 L 311.878906 177.390625 L 326.082031 196.976562 C 326.3125 197.296875 326.570312 197.589844 326.859375 197.855469 C 327.144531 198.125 327.457031 198.363281 327.789062 198.570312 C 328.125 198.773438 328.476562 198.945312 328.84375 199.085938 C 329.210938 199.222656 329.589844 199.320312 329.976562 199.382812 C 330.367188 199.445312 330.757812 199.472656 331.148438 199.457031 C 331.542969 199.441406 331.929688 199.390625 332.3125 199.300781 C 332.691406 199.207031 333.0625 199.082031 333.421875 198.917969 C 333.777344 198.753906 334.113281 198.558594 334.433594 198.328125 C 334.75 198.097656 335.042969 197.839844 335.3125 197.550781 C 335.578125 197.261719 335.816406 196.953125 336.023438 196.617188 C 336.226562 196.28125 336.398438 195.929688 336.535156 195.5625 C 336.671875 195.195312 336.773438 194.816406 336.832031 194.429688 C 336.894531 194.039062 336.917969 193.648438 336.90625 193.257812 C 336.890625 192.863281 336.835938 192.476562 336.746094 192.09375 C 336.652344 191.714844 336.527344 191.34375 336.363281 190.988281 C 336.199219 190.628906 336 190.292969 335.769531 189.972656 L 321.753906 170.644531 C 319.128906 166.722656 315.503906 163.441406 310.933594 161.613281 L 310.605469 161.484375 L 307.023438 160.515625 L 307.023438 121.785156 C 307.023438 121.394531 306.984375 121.003906 306.90625 120.621094 C 306.832031 120.234375 306.71875 119.863281 306.566406 119.5 C 306.417969 119.136719 306.234375 118.792969 306.015625 118.464844 C 305.796875 118.140625 305.546875 117.839844 305.269531 117.5625 C 304.992188 117.285156 304.691406 117.035156 304.367188 116.816406 C 304.039062 116.597656 303.695312 116.414062 303.332031 116.265625 C 302.96875 116.113281 302.597656 116 302.210938 115.925781 C 301.828125 115.847656 301.4375 115.808594 301.046875 115.808594 L 263.601562 115.808594 C 264.878906 112.273438 265.597656 108.433594 264.59375 104.3125 C 262.617188 95.277344 255.394531 88.222656 246.257812 86.453125 L 246.246094 86.453125 C 231.101562 83.496094 217.148438 94.417969 217.148438 108.644531 C 217.148438 111.523438 218.292969 113.539062 219.15625 115.808594 L 150.054688 115.808594 C 151.335938 112.273438 152.050781 108.433594 151.046875 104.3125 C 149.070312 95.277344 141.851562 88.222656 132.710938 86.453125 L 132.699219 86.453125 C 130.804688 86.085938 128.929688 85.933594 127.097656 85.976562 Z M 127.296875 97.882812 C 128.292969 97.875 129.332031 97.972656 130.410156 98.183594 C 130.417969 98.1875 130.425781 98.191406 130.433594 98.195312 C 134.882812 99.054688 138.488281 102.601562 139.410156 106.90625 C 139.421875 106.972656 139.433594 107.035156 139.445312 107.101562 C 140.082031 109.648438 139.539062 111.785156 138.070312 114.070312 L 138.277344 113.769531 C 136.46875 116.234375 136.113281 119.71875 137.214844 122.347656 C 138.320312 124.972656 140.632812 126.921875 143.425781 127.597656 C 143.886719 127.707031 144.355469 127.761719 144.828125 127.761719 L 175.546875 127.761719 L 175.546875 175.992188 C 175.539062 176.625 175.628906 177.242188 175.816406 177.847656 C 176.007812 178.449219 176.28125 179.011719 176.648438 179.527344 C 177.015625 180.042969 177.453125 180.488281 177.960938 180.867188 C 178.46875 181.242188 179.023438 181.53125 179.621094 181.734375 C 182.46875 183.730469 185.9375 184.667969 189.074219 182.785156 L 188.480469 183.101562 C 190.738281 182.074219 192.386719 181.546875 194.667969 181.546875 C 198.210938 181.546875 201.289062 183.019531 203.175781 185.070312 C 205.0625 187.125 205.890625 189.5 205.171875 192.554688 C 205.167969 192.566406 205.164062 192.578125 205.160156 192.589844 C 204.476562 195.566406 201.292969 198.613281 196.605469 199.453125 C 196.550781 199.464844 196.496094 199.476562 196.441406 199.488281 C 193.640625 200.070312 191.160156 199.519531 188.832031 198.273438 L 189.074219 198.414062 C 185.925781 196.523438 182.5 197.34375 179.667969 199.265625 C 179.667969 199.265625 179.65625 199.265625 179.65625 199.265625 C 179.050781 199.464844 178.492188 199.753906 177.980469 200.128906 C 177.46875 200.507812 177.027344 200.957031 176.65625 201.472656 C 176.285156 201.992188 176.007812 202.554688 175.816406 203.164062 C 175.628906 203.773438 175.539062 204.394531 175.546875 205.03125 L 175.546875 247.285156 L 144.828125 247.285156 C 144.355469 247.285156 143.886719 247.335938 143.425781 247.449219 C 140.632812 248.125 138.320312 250.070312 137.214844 252.699219 C 136.113281 255.328125 136.46875 258.8125 138.277344 261.277344 L 138.070312 260.976562 C 139.539062 263.261719 140.082031 265.398438 139.445312 267.945312 C 139.433594 268.011719 139.421875 268.074219 139.410156 268.140625 C 138.488281 272.445312 134.882812 275.992188 130.433594 276.851562 C 130.425781 276.851562 130.417969 276.855469 130.410156 276.859375 C 121.777344 278.554688 115.554688 272.851562 115.554688 266.402344 C 115.554688 264.335938 116.113281 262.832031 117.328125 260.601562 L 116.976562 261.175781 C 118.703125 258.710938 119.054688 255.222656 117.828125 252.535156 C 116.605469 249.847656 114.058594 247.996094 111.28125 247.414062 C 110.875 247.328125 110.460938 247.285156 110.042969 247.285156 L 108.980469 247.285156 L 135.664062 208.671875 C 141.53125 200.527344 140.980469 189.117188 133.761719 181.957031 C 126.96875 174.835938 115.558594 174.132812 108.128906 180.742188 L 82.488281 202.441406 L 79.929688 200.734375 L 79.929688 127.761719 L 110.042969 127.761719 C 110.460938 127.761719 110.875 127.71875 111.28125 127.632812 C 114.058594 127.050781 116.605469 125.195312 117.828125 122.511719 C 119.054688 119.824219 118.703125 116.335938 116.976562 113.871094 L 117.328125 114.445312 C 116.113281 112.214844 115.554688 110.710938 115.554688 108.644531 C 115.554688 103.003906 120.320312 97.929688 127.296875 97.882812 Z M 240.839844 97.882812 C 241.839844 97.875 242.878906 97.972656 243.957031 98.183594 C 243.964844 98.1875 243.972656 98.191406 243.980469 98.195312 C 248.429688 99.054688 252.035156 102.601562 252.957031 106.90625 C 252.96875 106.972656 252.980469 107.035156 252.992188 107.101562 C 253.628906 109.648438 253.082031 111.785156 251.613281 114.070312 L 251.824219 113.769531 C 250.015625 116.234375 249.660156 119.71875 250.761719 122.347656 C 251.867188 124.972656 254.175781 126.921875 256.972656 127.597656 C 257.433594 127.707031 257.898438 127.761719 258.371094 127.761719 L 295.070312 127.761719 L 295.070312 200.734375 L 292.511719 202.441406 L 266.882812 180.730469 C 266.882812 180.730469 266.871094 180.730469 266.871094 180.730469 C 259.4375 174.125 248.015625 174.8125 241.226562 181.957031 C 234.019531 189.117188 233.476562 200.511719 239.335938 208.648438 C 239.335938 208.648438 239.335938 208.660156 239.335938 208.660156 L 266.019531 247.285156 L 258.371094 247.285156 C 257.898438 247.285156 257.433594 247.335938 256.972656 247.449219 C 254.175781 248.125 251.867188 250.070312 250.761719 252.699219 C 249.660156 255.328125 250.015625 258.8125 251.824219 261.277344 L 251.613281 260.976562 C 253.082031 263.261719 253.628906 265.398438 252.992188 267.945312 C 252.980469 268.011719 252.96875 268.074219 252.957031 268.140625 C 252.035156 272.445312 248.429688 275.992188 243.980469 276.851562 C 243.972656 276.851562 243.964844 276.855469 243.957031 276.859375 C 235.320312 278.554688 229.097656 272.851562 229.097656 266.402344 C 229.097656 264.335938 229.65625 262.832031 230.875 260.601562 L 230.523438 261.175781 C 232.246094 258.710938 232.597656 255.222656 231.375 252.535156 C 230.152344 249.847656 227.605469 247.996094 224.828125 247.414062 C 224.417969 247.328125 224.007812 247.285156 223.589844 247.285156 L 187.5 247.285156 L 187.5 210.296875 C 190.972656 211.394531 194.722656 212.003906 198.773438 211.183594 C 207.441406 209.605469 214.867188 203.722656 216.808594 195.25 C 218.40625 188.398438 216.234375 181.613281 211.976562 176.984375 C 207.710938 172.34375 201.460938 169.59375 194.667969 169.59375 C 191.824219 169.59375 189.761719 170.550781 187.5 171.289062 L 187.5 127.761719 L 223.589844 127.761719 C 224.007812 127.761719 224.417969 127.71875 224.828125 127.632812 C 227.605469 127.050781 230.152344 125.195312 231.375 122.511719 C 232.597656 119.824219 232.246094 116.335938 230.523438 113.871094 L 230.875 114.445312 C 229.65625 112.214844 229.097656 110.710938 229.097656 108.644531 C 229.097656 103.003906 233.863281 97.929688 240.839844 97.882812 Z M 240.839844 97.882812 " fill-opacity="1" fill-rule="nonzero"/></g></svg>