<svg xmlns="http://www.w3.org/2000/svg" xmlns:xlink="http://www.w3.org/1999/xlink" width="500" zoomAndPan="magnify" viewBox="0 0 375 374.999991" height="500" preserveAspectRatio="xMidYMid meet" version="1.0"><defs><g/><clipPath id="d2f304d8cb"><path d="M 67.542969 38.039062 L 187.542969 38.039062 L 187.542969 337.257812 L 67.542969 337.257812 Z M 67.542969 38.039062 " clip-rule="nonzero"/></clipPath><clipPath id="12a6dd89a2"><path d="M 67.542969 37.53125 L 187.542969 37.53125 L 187.542969 187.5 L 67.542969 187.5 Z M 67.542969 37.53125 " clip-rule="nonzero"/></clipPath><clipPath id="bf4826a309"><path d="M 187.5 37.53125 L 307.453125 37.53125 L 307.453125 336.75 L 187.5 336.75 Z M 187.5 37.53125 " clip-rule="nonzero"/></clipPath><clipPath id="410ef885d9"><path d="M 187.5 38.039062 L 307.453125 38.039062 L 307.453125 187.257812 L 187.5 187.257812 Z M 187.5 38.039062 " clip-rule="nonzero"/></clipPath><clipPath id="4f3c0e6784"><path d="M 208 87.894531 L 291.167969 87.894531 L 291.167969 150.894531 L 208 150.894531 Z M 208 87.894531 " clip-rule="nonzero"/></clipPath><clipPath id="c8d2abf471"><path d="M 113 205.664062 L 141 205.664062 L 141 235 L 113 235 Z M 113 205.664062 " clip-rule="nonzero"/></clipPath><clipPath id="aaed2072c9"><path d="M 112.652344 235 L 142 235 L 142 242 L 112.652344 242 Z M 112.652344 235 " clip-rule="nonzero"/></clipPath></defs><g clip-path="url(#d2f304d8cb)"><path fill="#e0ac6c" d="M 185.03125 38.039062 C 144.894531 37.992188 100.917969 50.886719 69.429688 70.175781 C 68.851562 70.53125 68.375 71.027344 68.046875 71.617188 C 67.714844 72.207031 67.542969 72.875 67.542969 73.550781 L 67.859375 213.007812 C 67.859375 213.023438 67.859375 213.039062 67.859375 213.054688 C 68.28125 244.472656 76.242188 263.839844 94.90625 280.648438 C 113.566406 297.453125 142.304688 312.101562 185.316406 336.933594 C 185.914062 337.277344 186.59375 337.460938 187.289062 337.460938 C 187.980469 337.460938 188.664062 337.277344 189.261719 336.933594 C 229.605469 313.640625 258.375 298.410156 277.65625 280.578125 C 296.9375 262.742188 306.246094 241.933594 306.734375 209.902344 C 306.734375 209.882812 306.734375 209.863281 306.734375 209.84375 L 306.753906 75.03125 C 306.75 74.46875 306.628906 73.910156 306.398438 73.398438 C 306.164062 72.882812 305.820312 72.425781 305.394531 72.054688 C 280.382812 50.28125 226.625 38.089844 185.039062 38.039062 Z M 185.03125 38.039062 " fill-opacity="1" fill-rule="nonzero"/></g><g clip-path="url(#12a6dd89a2)"><path fill="#feebd2" d="M 185.03125 37.53125 C 144.894531 37.484375 100.917969 50.378906 69.429688 69.667969 C 68.851562 70.023438 68.375 70.519531 68.046875 71.109375 C 67.714844 71.699219 67.542969 72.367188 67.542969 73.042969 L 67.859375 212.5 C 67.859375 212.515625 67.859375 212.53125 67.859375 212.546875 C 68.28125 243.964844 76.242188 263.332031 94.90625 280.140625 C 113.566406 296.945312 142.304688 311.59375 185.316406 336.425781 C 185.914062 336.769531 186.59375 336.953125 187.289062 336.953125 C 187.980469 336.953125 188.664062 336.769531 189.261719 336.425781 C 229.605469 313.132812 258.375 297.902344 277.65625 280.070312 C 296.9375 262.234375 306.246094 241.425781 306.734375 209.394531 C 306.734375 209.375 306.734375 209.355469 306.734375 209.335938 L 306.753906 74.523438 C 306.75 73.960938 306.628906 73.402344 306.398438 72.890625 C 306.164062 72.375 305.820312 71.917969 305.394531 71.546875 C 280.382812 49.773438 226.625 37.582031 185.039062 37.53125 Z M 185.03125 37.53125 " fill-opacity="1" fill-rule="nonzero"/></g><g clip-path="url(#bf4826a309)"><path fill="#feebd2" d="M 189.964844 37.53125 C 230.101562 37.484375 274.078125 50.378906 305.566406 69.667969 C 306.144531 70.023438 306.621094 70.519531 306.949219 71.109375 C 307.28125 71.699219 307.453125 72.367188 307.453125 73.042969 L 307.136719 212.5 C 307.136719 212.515625 307.136719 212.53125 307.136719 212.546875 C 306.714844 243.964844 298.753906 263.332031 280.09375 280.140625 C 261.429688 296.945312 232.691406 311.59375 189.683594 336.425781 C 189.082031 336.769531 188.402344 336.953125 187.707031 336.953125 C 187.015625 336.953125 186.335938 336.769531 185.734375 336.425781 C 145.390625 313.132812 116.621094 297.902344 97.339844 280.070312 C 78.058594 262.234375 68.753906 241.425781 68.261719 209.394531 C 68.261719 209.375 68.261719 209.355469 68.261719 209.335938 L 68.246094 74.523438 C 68.246094 73.960938 68.367188 73.402344 68.601562 72.890625 C 68.835938 72.375 69.175781 71.917969 69.601562 71.546875 C 94.613281 49.773438 148.371094 37.582031 189.957031 37.53125 Z M 189.964844 37.53125 " fill-opacity="1" fill-rule="nonzero"/></g><g clip-path="url(#410ef885d9)"><path fill="#e0ac6c" d="M 189.964844 38.039062 C 230.101562 37.992188 274.078125 50.886719 305.566406 70.175781 C 306.144531 70.53125 306.621094 71.027344 306.949219 71.617188 C 307.28125 72.207031 307.453125 72.875 307.453125 73.550781 L 307.136719 213.007812 C 307.136719 213.023438 307.136719 213.039062 307.136719 213.054688 C 306.714844 244.472656 298.753906 263.839844 280.09375 280.648438 C 261.429688 297.453125 232.691406 312.101562 189.683594 336.933594 C 189.082031 337.277344 188.402344 337.460938 187.707031 337.460938 C 187.015625 337.460938 186.335938 337.277344 185.734375 336.933594 C 145.390625 313.640625 116.621094 298.410156 97.339844 280.578125 C 78.058594 262.742188 68.753906 241.933594 68.261719 209.902344 C 68.261719 209.882812 68.261719 209.863281 68.261719 209.84375 L 68.246094 75.03125 C 68.246094 74.46875 68.367188 73.910156 68.601562 73.398438 C 68.835938 72.882812 69.175781 72.425781 69.601562 72.054688 C 94.613281 50.28125 148.371094 38.089844 189.957031 38.039062 Z M 189.964844 38.039062 " fill-opacity="1" fill-rule="nonzero"/></g><g clip-path="url(#4f3c0e6784)"><path fill="#1c1b2f" d="M 277.550781 99.382812 L 286.703125 128.132812 L 268.402344 128.132812 Z M 248.214844 93.03125 C 248.214844 92.292969 248.816406 91.691406 249.558594 91.691406 C 250.296875 91.691406 250.898438 92.292969 250.898438 93.03125 C 250.898438 93.769531 250.296875 94.371094 249.558594 94.371094 C 248.816406 94.371094 248.214844 93.769531 248.214844 93.03125 Z M 212.414062 128.132812 L 221.5625 99.382812 L 230.714844 128.132812 Z M 290.949219 128.777344 C 290.726562 128.378906 290.304688 128.132812 289.847656 128.132812 L 288.683594 128.132812 L 279.144531 98.164062 L 279.179688 98.164062 C 280.226562 98.164062 281.074219 97.316406 281.074219 96.269531 C 281.074219 95.222656 280.226562 94.371094 279.179688 94.371094 L 254.507812 94.371094 C 254.625 93.945312 254.691406 93.496094 254.691406 93.03125 C 254.691406 90.199219 252.390625 87.898438 249.558594 87.898438 C 246.726562 87.898438 244.425781 90.199219 244.425781 93.03125 C 244.425781 93.496094 244.492188 93.945312 244.609375 94.371094 L 219.9375 94.371094 C 218.890625 94.371094 218.042969 95.222656 218.042969 96.269531 C 218.042969 97.316406 218.890625 98.164062 219.9375 98.164062 L 219.96875 98.164062 L 210.433594 128.132812 L 209.269531 128.132812 C 208.8125 128.132812 208.390625 128.378906 208.164062 128.777344 C 207.941406 129.175781 207.949219 129.664062 208.1875 130.054688 C 211.066406 134.769531 216.066406 137.585938 221.566406 137.585938 C 227.0625 137.585938 232.0625 134.769531 234.9375 130.054688 C 235.175781 129.664062 235.183594 129.175781 234.960938 128.777344 C 234.738281 128.378906 234.316406 128.132812 233.859375 128.132812 L 232.695312 128.132812 L 223.15625 98.164062 L 247.664062 98.164062 L 247.664062 145.378906 L 234.109375 145.378906 C 233.414062 145.378906 232.847656 145.945312 232.847656 146.640625 L 232.847656 149.378906 C 232.847656 150.078125 233.414062 150.644531 234.109375 150.644531 L 265.003906 150.644531 C 265.703125 150.644531 266.269531 150.078125 266.269531 149.378906 L 266.269531 146.640625 C 266.269531 145.945312 265.703125 145.378906 265.003906 145.378906 L 251.453125 145.378906 L 251.453125 98.164062 L 275.957031 98.164062 L 266.417969 128.132812 L 265.257812 128.132812 C 264.800781 128.132812 264.378906 128.378906 264.152344 128.777344 C 263.929688 129.175781 263.9375 129.664062 264.175781 130.054688 C 267.054688 134.769531 272.050781 137.585938 277.550781 137.585938 C 283.050781 137.585938 288.050781 134.769531 290.925781 130.054688 C 291.164062 129.664062 291.171875 129.175781 290.949219 128.777344 " fill-opacity="1" fill-rule="nonzero"/></g><g clip-path="url(#c8d2abf471)"><path fill="#1c1b2f" d="M 136.421875 234.335938 C 145.433594 223.167969 136.011719 214.042969 136.011719 214.042969 C 135.597656 216.136719 134.464844 218.230469 131.726562 220.449219 C 132.945312 213.894531 130.753906 208.292969 125.015625 205.667969 C 125.808594 213.09375 119.65625 217.175781 118.183594 223.257812 C 116.167969 221.925781 114.800781 219.847656 114.800781 219.847656 C 112.65625 225.144531 113.625 230.445312 116.585938 234.335938 L 136.421875 234.335938 " fill-opacity="1" fill-rule="nonzero"/></g><g clip-path="url(#aaed2072c9)"><path fill="#1c1b2f" d="M 112.878906 235.800781 L 112.878906 237.25 C 112.878906 239.335938 114.574219 241.027344 116.660156 241.027344 L 137.304688 241.027344 C 139.390625 241.027344 141.085938 239.335938 141.085938 237.25 L 141.085938 235.800781 L 112.878906 235.800781 " fill-opacity="1" fill-rule="nonzero"/></g><path fill="#1c1b2f" d="M 119.585938 243.699219 C 121.746094 247.351562 123.070312 251.441406 123.457031 255.667969 L 124.574219 267.742188 C 124.6875 268.988281 125.730469 269.9375 126.984375 269.9375 L 127.039062 269.9375 C 128.285156 269.9375 129.328125 268.988281 129.445312 267.742188 L 130.523438 255.714844 C 130.902344 251.457031 132.226562 247.339844 134.402344 243.660156 L 135.089844 242.492188 L 118.875 242.492188 L 119.585938 243.699219 " fill-opacity="1" fill-rule="nonzero"/><g fill="#5a0b0b" fill-opacity="1"><g transform="translate(102.875974, 148.4819)"><g><path d="M 28.390625 -62.5 C 33.328125 -62.5 37.503906 -61.484375 40.921875 -59.453125 C 44.347656 -57.429688 46.894531 -54.753906 48.5625 -51.421875 C 50.226562 -48.085938 51.0625 -44.488281 51.0625 -40.625 C 51.0625 -36.8125 50.242188 -33.28125 48.609375 -30.03125 C 46.972656 -26.789062 44.441406 -24.1875 41.015625 -22.21875 C 37.597656 -20.257812 33.390625 -19.28125 28.390625 -19.28125 L 18.296875 -19.28125 L 18.296875 0 L 4.640625 0 L 4.640625 -62.5 Z M 26.15625 -30.71875 C 29.375 -30.71875 32.082031 -31.472656 34.28125 -32.984375 C 36.488281 -34.503906 37.59375 -37.050781 37.59375 -40.625 C 37.59375 -44.195312 36.503906 -46.695312 34.328125 -48.125 C 32.148438 -49.550781 29.425781 -50.265625 26.15625 -50.265625 L 18.296875 -50.265625 L 18.296875 -30.71875 Z M 26.15625 -30.71875 "/></g></g></g><g fill="#5a0b0b" fill-opacity="1"><g transform="translate(210.793731, 266.971689)"><g><path d="M 40.171875 -14.46875 L 20.171875 -14.46875 L 15.71875 0 L 1.609375 0 L 23.84375 -62.5 L 36.78125 -62.5 L 58.84375 0 L 44.734375 0 Z M 36.78125 -25.09375 L 30.359375 -45.265625 L 29.8125 -45.265625 L 23.5625 -25.09375 Z M 36.78125 -25.09375 "/></g></g></g></svg>