<svg xmlns="http://www.w3.org/2000/svg" xmlns:xlink="http://www.w3.org/1999/xlink" width="500" zoomAndPan="magnify" viewBox="0 0 375 374.999991" height="500" preserveAspectRatio="xMidYMid meet" version="1.0"><defs><clipPath id="3ba5265b11"><path d="M 129.285156 187.5 L 165.542969 187.5 L 165.542969 223.757812 L 129.285156 223.757812 Z M 129.285156 187.5 " clip-rule="nonzero"/></clipPath><clipPath id="d1b57a83e4"><path d="M 147.414062 187.5 C 137.402344 187.5 129.285156 195.617188 129.285156 205.628906 C 129.285156 215.640625 137.402344 223.757812 147.414062 223.757812 C 157.425781 223.757812 165.542969 215.640625 165.542969 205.628906 C 165.542969 195.617188 157.425781 187.5 147.414062 187.5 Z M 147.414062 187.5 " clip-rule="nonzero"/></clipPath><clipPath id="31a363544b"><path d="M 87 149 L 288.5625 149 L 288.5625 337.5 L 87 337.5 Z M 87 149 " clip-rule="nonzero"/></clipPath></defs><g clip-path="url(#3ba5265b11)"><g clip-path="url(#d1b57a83e4)"><path fill="#1c1b2f" d="M 129.285156 187.5 L 165.542969 187.5 L 165.542969 223.757812 L 129.285156 223.757812 Z M 129.285156 187.5 " fill-opacity="1" fill-rule="nonzero"/></g></g><path fill="#1c1b2f" d="M 203.117188 45.519531 C 204.1875 45.769531 205.242188 46.070312 206.28125 46.421875 C 207.324219 46.773438 208.34375 47.175781 209.34375 47.628906 C 210.34375 48.082031 211.320312 48.585938 212.269531 49.132812 C 213.222656 49.679688 214.144531 50.277344 215.035156 50.914062 C 215.929688 51.554688 216.789062 52.234375 217.613281 52.960938 C 218.441406 53.683594 219.230469 54.445312 219.980469 55.246094 C 220.730469 56.046875 221.441406 56.882812 222.109375 57.753906 C 222.777344 58.625 223.402344 59.527344 223.984375 60.460938 C 224.5625 61.394531 225.097656 62.351562 225.582031 63.335938 C 226.066406 64.320312 226.503906 65.328125 226.890625 66.355469 C 227.277344 67.382812 227.613281 68.425781 227.898438 69.488281 C 228.183594 70.546875 228.414062 71.621094 228.59375 72.703125 C 228.773438 73.785156 228.898438 74.875 228.972656 75.972656 C 229.042969 77.066406 229.0625 78.164062 229.027344 79.261719 C 228.992188 80.359375 228.902344 81.453125 228.757812 82.539062 C 228.617188 83.628906 228.421875 84.707031 228.171875 85.777344 C 227.921875 86.847656 227.621094 87.902344 227.269531 88.941406 C 226.914062 89.980469 226.511719 91 226.058594 92 C 225.605469 93.003906 225.105469 93.976562 224.558594 94.929688 C 224.007812 95.878906 223.414062 96.800781 222.773438 97.695312 C 222.136719 98.585938 221.453125 99.445312 220.730469 100.273438 C 220.007812 101.097656 219.242188 101.886719 218.441406 102.636719 C 217.640625 103.386719 216.804688 104.097656 215.933594 104.765625 C 215.0625 105.433594 214.160156 106.058594 213.230469 106.640625 C 212.296875 107.21875 211.339844 107.753906 210.355469 108.238281 C 209.367188 108.722656 208.363281 109.160156 207.335938 109.546875 C 206.308594 109.933594 205.261719 110.269531 204.203125 110.554688 C 203.140625 110.839844 202.070312 111.070312 200.988281 111.25 C 199.902344 111.429688 198.8125 111.554688 197.71875 111.628906 C 196.621094 111.699219 195.523438 111.71875 194.425781 111.683594 C 193.328125 111.648438 192.238281 111.558594 191.148438 111.414062 C 190.058594 111.269531 188.980469 111.074219 187.910156 110.828125 C 186.839844 110.578125 185.785156 110.277344 184.746094 109.921875 C 183.707031 109.570312 182.6875 109.167969 181.6875 108.714844 C 180.683594 108.261719 179.710938 107.761719 178.757812 107.210938 C 177.808594 106.664062 176.886719 106.070312 175.992188 105.429688 C 175.097656 104.789062 174.238281 104.109375 173.414062 103.386719 C 172.589844 102.660156 171.800781 101.898438 171.050781 101.097656 C 170.296875 100.296875 169.589844 99.460938 168.917969 98.589844 C 168.25 97.71875 167.625 96.816406 167.046875 95.886719 C 166.464844 94.953125 165.933594 93.992188 165.445312 93.007812 C 164.960938 92.023438 164.523438 91.019531 164.136719 89.992188 C 163.75 88.964844 163.414062 87.917969 163.128906 86.859375 C 162.84375 85.796875 162.613281 84.726562 162.433594 83.644531 C 162.253906 82.558594 162.128906 81.46875 162.058594 80.375 C 161.984375 79.277344 161.964844 78.183594 162.003906 77.085938 C 162.039062 75.988281 162.128906 74.894531 162.269531 73.804688 C 162.414062 72.714844 162.609375 71.636719 162.859375 70.566406 C 163.105469 69.5 163.40625 68.445312 163.761719 67.402344 C 164.113281 66.363281 164.515625 65.34375 164.96875 64.34375 C 165.421875 63.34375 165.921875 62.367188 166.472656 61.417969 C 167.019531 60.464844 167.613281 59.542969 168.253906 58.652344 C 168.894531 57.757812 169.574219 56.898438 170.296875 56.074219 C 171.023438 55.246094 171.785156 54.460938 172.585938 53.707031 C 173.386719 52.957031 174.222656 52.246094 175.09375 51.578125 C 175.964844 50.910156 176.867188 50.285156 177.800781 49.707031 C 178.730469 49.125 179.691406 48.59375 180.675781 48.105469 C 181.660156 47.621094 182.667969 47.183594 183.695312 46.796875 C 184.722656 46.410156 185.765625 46.074219 186.828125 45.789062 C 187.886719 45.503906 188.960938 45.273438 190.042969 45.09375 C 191.125 44.914062 192.214844 44.789062 193.3125 44.71875 C 194.40625 44.644531 195.503906 44.628906 196.601562 44.664062 C 197.699219 44.699219 198.792969 44.789062 199.882812 44.929688 C 200.96875 45.074219 202.050781 45.269531 203.117188 45.519531 Z M 203.117188 45.519531 " fill-opacity="1" fill-rule="nonzero"/><path fill="#1c1b2f" d="M 217.960938 249.121094 L 234.355469 315.972656 C 236.441406 324.476562 244.054688 330.171875 252.4375 330.171875 C 253.90625 330.171875 255.398438 329.996094 256.886719 329.632812 C 266.882812 327.179688 272.996094 317.09375 270.546875 307.101562 L 250.671875 226.050781 C 248.621094 217.691406 241.1875 211.855469 232.574219 211.855469 L 209.734375 211.855469 L 180.65625 249.121094 Z M 217.960938 249.121094 " fill-opacity="1" fill-rule="nonzero"/><path fill="#1c1b2f" d="M 190.828125 211.855469 L 176.863281 211.855469 C 176.878906 201.101562 178.203125 190.0625 179.945312 179.582031 C 172.792969 175.914062 166.4375 170.773438 161.527344 164.613281 C 153.96875 155.066406 151.355469 145.921875 150.46875 141.320312 L 150.441406 141.164062 C 149.078125 132.960938 154.578125 125.273438 162.6875 123.925781 C 163.5 123.789062 164.328125 123.71875 165.140625 123.71875 C 172.367188 123.71875 178.535156 128.894531 179.800781 136.015625 L 179.832031 136.140625 C 179.871094 136.292969 179.96875 136.710938 180.144531 137.257812 C 180.425781 138.164062 181.050781 139.964844 182.191406 142.039062 C 183.34375 144.125 184.695312 145.96875 186.234375 147.609375 C 189.3125 133.304688 183.660156 117.210938 171.609375 114.207031 C 158.882812 111.035156 140.4375 117.945312 132.933594 139.769531 C 122.789062 169.839844 120.609375 189.414062 124.464844 222.527344 C 128.492188 243.25 141.304688 247.914062 153.523438 248.6875 C 154.804688 248.96875 156.132812 249.121094 157.496094 249.121094 L 161.75 249.121094 Z M 190.828125 211.855469 " fill-opacity="1" fill-rule="nonzero"/><g clip-path="url(#31a363544b)"><path fill="#1c1b2f" d="M 280.648438 187.074219 L 200.902344 187.074219 C 196.785156 187.074219 193.449219 190.410156 193.449219 194.527344 C 193.449219 198.644531 196.785156 201.980469 200.902344 201.980469 L 202.316406 201.980469 L 159.050781 257.421875 C 145.660156 257.421875 133.058594 257.421875 127.65625 257.421875 C 125.230469 257.414062 123.902344 256.941406 123.027344 256.472656 C 121.761719 255.773438 121.113281 254.820312 120.636719 253.761719 C 120.414062 253.25 120.277344 252.765625 120.214844 252.464844 C 120.183594 252.316406 120.167969 252.214844 120.164062 252.1875 L 120.160156 252.1875 L 120.078125 251.59375 L 102.191406 155.199219 C 101.4375 151.15625 97.546875 148.484375 93.503906 149.234375 C 89.453125 149.988281 86.78125 153.875 87.535156 157.921875 L 105.390625 254.15625 C 105.578125 255.597656 106.203125 259.105469 108.785156 263.050781 C 110.320312 265.371094 112.65625 267.800781 115.886719 269.554688 C 118.527344 271.003906 121.699219 271.941406 125.253906 272.226562 L 100.394531 330.90625 C 99.429688 333.179688 100.492188 335.804688 102.765625 336.769531 C 103.339844 337.011719 103.929688 337.125 104.511719 337.125 C 106.253906 337.125 107.910156 336.101562 108.632812 334.394531 L 134.925781 272.328125 C 146.410156 272.328125 165.574219 272.328125 180.675781 272.328125 L 206.96875 334.394531 C 207.691406 336.101562 209.347656 337.125 211.089844 337.125 C 211.671875 337.125 212.261719 337.011719 212.832031 336.769531 C 215.105469 335.804688 216.167969 333.179688 215.207031 330.90625 L 190.390625 272.328125 C 198.035156 272.328125 203.175781 272.328125 203.175781 272.328125 C 207.292969 272.328125 210.628906 268.992188 210.628906 264.878906 C 210.628906 260.761719 207.292969 257.421875 203.175781 257.421875 C 203.175781 257.421875 187.632812 257.421875 170.394531 257.421875 L 213.65625 201.980469 L 280.648438 201.980469 C 284.765625 201.980469 288.097656 198.644531 288.097656 194.527344 C 288.097656 190.410156 284.765625 187.074219 280.648438 187.074219 Z M 280.648438 187.074219 " fill-opacity="1" fill-rule="nonzero"/></g><path fill="#1c1b2f" d="M 236.355469 146.042969 L 231.6875 149.75 L 235.125 154.070312 C 237.175781 153.570312 239.261719 153.015625 241.402344 152.386719 Z M 236.355469 146.042969 " fill-opacity="1" fill-rule="nonzero"/><path fill="#1c1b2f" d="M 263.464844 184.472656 L 263.308594 184.09375 L 259.851562 175.601562 L 255.1875 179.308594 L 261.972656 184.09375 L 263.015625 184.828125 Z M 263.464844 184.472656 " fill-opacity="1" fill-rule="nonzero"/><path fill="#1c1b2f" d="M 212.914062 183.914062 C 223.46875 183.910156 235.507812 182.109375 249.375 178.011719 C 255.6875 176.144531 259.292969 169.511719 257.425781 163.195312 C 255.558594 156.878906 248.925781 153.277344 242.613281 155.144531 C 230.527344 158.714844 220.730469 160.066406 212.914062 160.066406 C 203.910156 160.054688 197.550781 158.324219 192.820312 156.042969 C 185.773438 152.613281 181.9375 147.734375 179.574219 143.472656 C 178.421875 141.355469 177.699219 139.441406 177.304688 138.15625 C 177.101562 137.515625 176.984375 137.03125 176.917969 136.765625 C 176.890625 136.632812 176.875 136.554688 176.871094 136.539062 C 175.726562 130.117188 169.628906 125.792969 163.179688 126.867188 C 156.679688 127.945312 152.289062 134.085938 153.367188 140.582031 C 153.601562 141.753906 155.300781 151.945312 163.863281 162.753906 C 168.140625 168.121094 174.234375 173.550781 182.429688 177.511719 C 190.59375 181.472656 200.742188 183.914062 212.824219 183.914062 C 212.851562 183.914062 212.882812 183.914062 212.914062 183.914062 Z M 212.914062 183.914062 " fill-opacity="1" fill-rule="nonzero"/></svg>