<svg xmlns="http://www.w3.org/2000/svg" xmlns:xlink="http://www.w3.org/1999/xlink" width="500" zoomAndPan="magnify" viewBox="0 0 375 374.999991" height="500" preserveAspectRatio="xMidYMid meet" version="1.0"><defs><g/><clipPath id="c102417959"><path d="M 28 156.316406 L 52.75 156.316406 L 52.75 218.558594 L 28 218.558594 Z M 28 156.316406 " clip-rule="nonzero"/></clipPath><clipPath id="7840abf3fd"><path d="M 28 156.210938 L 52.75 156.210938 L 52.75 187.703125 L 28 187.703125 Z M 28 156.210938 " clip-rule="nonzero"/></clipPath><clipPath id="7f2c6cd959"><path d="M 52.277344 156.210938 L 77.027344 156.210938 L 77.027344 218.453125 L 52.277344 218.453125 Z M 52.277344 156.210938 " clip-rule="nonzero"/></clipPath><clipPath id="baa1d661a9"><path d="M 52.277344 156.316406 L 77.027344 156.316406 L 77.027344 187.808594 L 52.277344 187.808594 Z M 52.277344 156.316406 " clip-rule="nonzero"/></clipPath><clipPath id="a0f2d24265"><path d="M 56.863281 166.71875 L 74.113281 166.71875 L 74.113281 179.46875 L 56.863281 179.46875 Z M 56.863281 166.71875 " clip-rule="nonzero"/></clipPath><clipPath id="69f0286ead"><path d="M 37.410156 191.289062 L 44 191.289062 L 44 198 L 37.410156 198 Z M 37.410156 191.289062 " clip-rule="nonzero"/></clipPath><clipPath id="23a9d55b94"><path d="M 37.410156 197 L 44 197 L 44 199 L 37.410156 199 Z M 37.410156 197 " clip-rule="nonzero"/></clipPath><clipPath id="659d7a2f9d"><path d="M 38 198 L 43 198 L 43 204.789062 L 38 204.789062 Z M 38 198 " clip-rule="nonzero"/></clipPath></defs><g clip-path="url(#c102417959)"><path fill="#e0ac6c" d="M 52.511719 156.316406 C 44.140625 156.304688 34.964844 158.996094 28.394531 163.019531 C 28.273438 163.09375 28.175781 163.199219 28.105469 163.320312 C 28.035156 163.445312 28 163.582031 28 163.726562 L 28.066406 192.820312 C 28.066406 192.824219 28.066406 192.828125 28.066406 192.832031 C 28.15625 199.386719 29.816406 203.425781 33.710938 206.933594 C 37.601562 210.441406 43.597656 213.496094 52.574219 218.675781 C 52.699219 218.75 52.839844 218.789062 52.984375 218.789062 C 53.128906 218.789062 53.269531 218.75 53.394531 218.675781 C 61.8125 213.816406 67.816406 210.640625 71.839844 206.917969 C 75.863281 203.199219 77.804688 198.855469 77.90625 192.171875 C 77.90625 192.167969 77.90625 192.164062 77.90625 192.160156 L 77.910156 164.035156 C 77.910156 163.914062 77.882812 163.800781 77.835938 163.691406 C 77.785156 163.585938 77.714844 163.488281 77.625 163.414062 C 72.40625 158.871094 61.191406 156.324219 52.515625 156.316406 Z M 52.511719 156.316406 " fill-opacity="1" fill-rule="nonzero"/></g><g clip-path="url(#7840abf3fd)"><path fill="#feebd2" d="M 52.511719 156.210938 C 44.140625 156.199219 34.964844 158.890625 28.394531 162.914062 C 28.273438 162.988281 28.175781 163.09375 28.105469 163.214844 C 28.035156 163.339844 28 163.476562 28 163.617188 L 28.066406 192.714844 C 28.066406 192.71875 28.066406 192.722656 28.066406 192.722656 C 28.15625 199.28125 29.816406 203.320312 33.710938 206.828125 C 37.601562 210.332031 43.597656 213.390625 52.574219 218.570312 C 52.699219 218.644531 52.839844 218.679688 52.984375 218.679688 C 53.128906 218.679688 53.269531 218.644531 53.394531 218.570312 C 61.8125 213.710938 67.816406 210.535156 71.839844 206.8125 C 75.863281 203.089844 77.804688 198.75 77.90625 192.066406 C 77.90625 192.0625 77.90625 192.058594 77.90625 192.054688 L 77.910156 163.925781 C 77.910156 163.808594 77.882812 163.695312 77.835938 163.585938 C 77.785156 163.480469 77.714844 163.382812 77.625 163.304688 C 72.40625 158.761719 61.191406 156.21875 52.515625 156.210938 Z M 52.511719 156.210938 " fill-opacity="1" fill-rule="nonzero"/></g><g clip-path="url(#7f2c6cd959)"><path fill="#feebd2" d="M 52.785156 156.210938 C 61.160156 156.199219 70.335938 158.890625 76.90625 162.914062 C 77.027344 162.988281 77.125 163.09375 77.195312 163.214844 C 77.261719 163.339844 77.300781 163.476562 77.296875 163.617188 L 77.234375 192.714844 C 77.234375 192.71875 77.234375 192.722656 77.234375 192.722656 C 77.144531 199.28125 75.484375 203.320312 71.589844 206.828125 C 67.695312 210.332031 61.699219 213.390625 52.726562 218.570312 C 52.601562 218.644531 52.460938 218.679688 52.316406 218.679688 C 52.171875 218.679688 52.027344 218.644531 51.902344 218.570312 C 43.484375 213.710938 37.484375 210.535156 33.460938 206.8125 C 29.4375 203.089844 27.496094 198.75 27.394531 192.066406 C 27.394531 192.0625 27.394531 192.058594 27.394531 192.054688 L 27.390625 163.925781 C 27.390625 163.808594 27.414062 163.695312 27.464844 163.585938 C 27.511719 163.480469 27.585938 163.382812 27.671875 163.304688 C 32.890625 158.761719 44.109375 156.21875 52.785156 156.210938 Z M 52.785156 156.210938 " fill-opacity="1" fill-rule="nonzero"/></g><g clip-path="url(#baa1d661a9)"><path fill="#e0ac6c" d="M 52.785156 156.316406 C 61.160156 156.304688 70.335938 158.996094 76.90625 163.019531 C 77.027344 163.09375 77.125 163.199219 77.195312 163.320312 C 77.261719 163.445312 77.300781 163.582031 77.296875 163.726562 L 77.234375 192.820312 C 77.234375 192.824219 77.234375 192.828125 77.234375 192.832031 C 77.144531 199.386719 75.484375 203.425781 71.589844 206.933594 C 67.695312 210.441406 61.699219 213.496094 52.726562 218.675781 C 52.601562 218.75 52.460938 218.789062 52.316406 218.789062 C 52.171875 218.789062 52.027344 218.75 51.902344 218.675781 C 43.484375 213.816406 37.484375 210.640625 33.460938 206.917969 C 29.4375 203.199219 27.496094 198.855469 27.394531 192.171875 C 27.394531 192.167969 27.394531 192.164062 27.394531 192.160156 L 27.390625 164.035156 C 27.390625 163.914062 27.414062 163.800781 27.464844 163.691406 C 27.511719 163.585938 27.585938 163.488281 27.671875 163.414062 C 32.890625 158.871094 44.109375 156.324219 52.785156 156.316406 Z M 52.785156 156.316406 " fill-opacity="1" fill-rule="nonzero"/></g><g clip-path="url(#a0f2d24265)"><path fill="#1c1b2f" d="M 71.386719 169.113281 L 73.296875 175.109375 L 69.480469 175.109375 Z M 65.269531 167.789062 C 65.269531 167.636719 65.394531 167.507812 65.546875 167.507812 C 65.703125 167.507812 65.828125 167.636719 65.828125 167.789062 C 65.828125 167.941406 65.703125 168.070312 65.546875 168.070312 C 65.394531 168.070312 65.269531 167.941406 65.269531 167.789062 Z M 57.800781 175.109375 L 59.710938 169.113281 L 61.617188 175.109375 Z M 74.183594 175.246094 C 74.136719 175.164062 74.046875 175.109375 73.953125 175.109375 L 73.710938 175.109375 L 71.71875 168.859375 L 71.726562 168.859375 C 71.945312 168.859375 72.121094 168.683594 72.121094 168.464844 C 72.121094 168.246094 71.945312 168.070312 71.726562 168.070312 L 66.582031 168.070312 C 66.605469 167.980469 66.617188 167.886719 66.617188 167.789062 C 66.617188 167.199219 66.140625 166.71875 65.546875 166.71875 C 64.957031 166.71875 64.476562 167.199219 64.476562 167.789062 C 64.476562 167.886719 64.492188 167.980469 64.515625 168.070312 L 59.371094 168.070312 C 59.152344 168.070312 58.972656 168.246094 58.972656 168.464844 C 58.972656 168.683594 59.152344 168.859375 59.371094 168.859375 L 59.375 168.859375 L 57.386719 175.109375 L 57.144531 175.109375 C 57.050781 175.109375 56.960938 175.164062 56.914062 175.246094 C 56.867188 175.328125 56.871094 175.429688 56.917969 175.511719 C 57.519531 176.496094 58.5625 177.082031 59.710938 177.082031 C 60.855469 177.082031 61.898438 176.496094 62.5 175.511719 C 62.546875 175.429688 62.550781 175.328125 62.503906 175.246094 C 62.457031 175.164062 62.367188 175.109375 62.273438 175.109375 L 62.03125 175.109375 L 60.042969 168.859375 L 65.152344 168.859375 L 65.152344 178.707031 L 62.328125 178.707031 C 62.179688 178.707031 62.0625 178.828125 62.0625 178.972656 L 62.0625 179.542969 C 62.0625 179.6875 62.179688 179.804688 62.328125 179.804688 L 68.769531 179.804688 C 68.917969 179.804688 69.035156 179.6875 69.035156 179.542969 L 69.035156 178.972656 C 69.035156 178.828125 68.917969 178.707031 68.769531 178.707031 L 65.945312 178.707031 L 65.945312 168.859375 L 71.054688 168.859375 L 69.066406 175.109375 L 68.824219 175.109375 C 68.726562 175.109375 68.640625 175.164062 68.59375 175.246094 C 68.546875 175.328125 68.546875 175.429688 68.597656 175.511719 C 69.199219 176.496094 70.242188 177.082031 71.386719 177.082031 C 72.535156 177.082031 73.578125 176.496094 74.175781 175.511719 C 74.226562 175.429688 74.230469 175.328125 74.183594 175.246094 " fill-opacity="1" fill-rule="nonzero"/></g><g clip-path="url(#69f0286ead)"><path fill="#1c1b2f" d="M 42.367188 197.269531 C 44.246094 194.941406 42.28125 193.039062 42.28125 193.039062 C 42.195312 193.476562 41.960938 193.914062 41.386719 194.375 C 41.640625 193.007812 41.183594 191.84375 39.988281 191.296875 C 40.15625 192.84375 38.871094 193.691406 38.566406 194.960938 C 38.144531 194.683594 37.859375 194.25 37.859375 194.25 C 37.414062 195.355469 37.617188 196.460938 38.230469 197.269531 L 42.367188 197.269531 " fill-opacity="1" fill-rule="nonzero"/></g><g clip-path="url(#23a9d55b94)"><path fill="#1c1b2f" d="M 37.460938 197.574219 L 37.460938 197.878906 C 37.460938 198.3125 37.8125 198.664062 38.25 198.664062 L 42.550781 198.664062 C 42.984375 198.664062 43.339844 198.3125 43.339844 197.878906 L 43.339844 197.574219 L 37.460938 197.574219 " fill-opacity="1" fill-rule="nonzero"/></g><g clip-path="url(#659d7a2f9d)"><path fill="#1c1b2f" d="M 38.859375 199.222656 C 39.308594 199.984375 39.582031 200.835938 39.664062 201.714844 L 39.898438 204.234375 C 39.921875 204.492188 40.140625 204.691406 40.398438 204.691406 L 40.410156 204.691406 C 40.671875 204.691406 40.886719 204.492188 40.914062 204.234375 L 41.136719 201.726562 C 41.214844 200.839844 41.492188 199.980469 41.945312 199.214844 L 42.089844 198.96875 L 38.710938 198.96875 L 38.859375 199.222656 " fill-opacity="1" fill-rule="nonzero"/></g><g fill="#5a0b0b" fill-opacity="1"><g transform="translate(35.372536, 179.358999)"><g><path d="M 5.921875 -13.03125 C 6.953125 -13.03125 7.820312 -12.816406 8.53125 -12.390625 C 9.25 -11.972656 9.78125 -11.414062 10.125 -10.71875 C 10.476562 -10.03125 10.65625 -9.28125 10.65625 -8.46875 C 10.65625 -7.675781 10.484375 -6.941406 10.140625 -6.265625 C 9.796875 -5.585938 9.265625 -5.039062 8.546875 -4.625 C 7.835938 -4.21875 6.960938 -4.015625 5.921875 -4.015625 L 3.8125 -4.015625 L 3.8125 0 L 0.96875 0 L 0.96875 -13.03125 Z M 5.453125 -6.40625 C 6.128906 -6.40625 6.695312 -6.5625 7.15625 -6.875 C 7.613281 -7.195312 7.84375 -7.726562 7.84375 -8.46875 C 7.84375 -9.21875 7.613281 -9.738281 7.15625 -10.03125 C 6.707031 -10.332031 6.140625 -10.484375 5.453125 -10.484375 L 3.8125 -10.484375 L 3.8125 -6.40625 Z M 5.453125 -6.40625 "/></g></g></g><g fill="#5a0b0b" fill-opacity="1"><g transform="translate(57.612946, 204.081488)"><g><path d="M 8.375 -3.015625 L 4.203125 -3.015625 L 3.28125 0 L 0.328125 0 L 4.96875 -13.03125 L 7.671875 -13.03125 L 12.28125 0 L 9.328125 0 Z M 7.671875 -5.234375 L 6.328125 -9.4375 L 6.21875 -9.4375 L 4.921875 -5.234375 Z M 7.671875 -5.234375 "/></g></g></g><g fill="#feebd2" fill-opacity="1"><g transform="translate(84.057479, 200.48524)"><g><path d="M 11.203125 -24.671875 C 13.160156 -24.671875 14.8125 -24.269531 16.15625 -23.46875 C 17.507812 -22.675781 18.515625 -21.617188 19.171875 -20.296875 C 19.828125 -18.984375 20.15625 -17.5625 20.15625 -16.03125 C 20.15625 -14.53125 19.832031 -13.140625 19.1875 -11.859375 C 18.539062 -10.578125 17.539062 -9.546875 16.1875 -8.765625 C 14.84375 -7.992188 13.179688 -7.609375 11.203125 -7.609375 L 7.21875 -7.609375 L 7.21875 0 L 1.828125 0 L 1.828125 -24.671875 Z M 10.328125 -12.125 C 11.597656 -12.125 12.664062 -12.421875 13.53125 -13.015625 C 14.40625 -13.617188 14.84375 -14.625 14.84375 -16.03125 C 14.84375 -17.445312 14.410156 -18.4375 13.546875 -19 C 12.691406 -19.5625 11.617188 -19.84375 10.328125 -19.84375 L 7.21875 -19.84375 L 7.21875 -12.125 Z M 10.328125 -12.125 "/></g></g></g><g fill="#feebd2" fill-opacity="1"><g transform="translate(104.710752, 200.48524)"><g><path d="M 10.15625 -8.640625 L 7.296875 -8.640625 L 7.296875 0 L 1.828125 0 L 1.828125 -24.671875 L 11.203125 -24.671875 C 13.160156 -24.671875 14.8125 -24.296875 16.15625 -23.546875 C 17.507812 -22.796875 18.515625 -21.800781 19.171875 -20.5625 C 19.828125 -19.332031 20.15625 -18 20.15625 -16.5625 C 20.15625 -14.96875 19.753906 -13.53125 18.953125 -12.25 C 18.160156 -10.96875 16.988281 -10.007812 15.4375 -9.375 L 20.734375 0 L 14.984375 0 Z M 7.296875 -13.109375 L 10.328125 -13.109375 C 11.597656 -13.109375 12.664062 -13.375 13.53125 -13.90625 C 14.40625 -14.4375 14.84375 -15.320312 14.84375 -16.5625 C 14.84375 -17.757812 14.410156 -18.609375 13.546875 -19.109375 C 12.691406 -19.617188 11.617188 -19.875 10.328125 -19.875 L 7.296875 -19.875 Z M 7.296875 -13.109375 "/></g></g></g><g fill="#feebd2" fill-opacity="1"><g transform="translate(126.139408, 200.48524)"><g><path d="M 12.71875 0.3125 C 10.257812 0.3125 8.171875 -0.253906 6.453125 -1.390625 C 4.734375 -2.535156 3.441406 -4.0625 2.578125 -5.96875 C 1.722656 -7.882812 1.296875 -10.007812 1.296875 -12.34375 C 1.296875 -14.664062 1.726562 -16.800781 2.59375 -18.75 C 3.46875 -20.695312 4.765625 -22.253906 6.484375 -23.421875 C 8.203125 -24.585938 10.28125 -25.171875 12.71875 -25.171875 C 15.125 -25.171875 17.175781 -24.59375 18.875 -23.4375 C 20.582031 -22.289062 21.863281 -20.734375 22.71875 -18.765625 C 23.570312 -16.804688 24 -14.648438 24 -12.296875 C 24 -9.953125 23.570312 -7.820312 22.71875 -5.90625 C 21.863281 -3.988281 20.582031 -2.472656 18.875 -1.359375 C 17.175781 -0.242188 15.125 0.3125 12.71875 0.3125 Z M 12.6875 -4.578125 C 14.425781 -4.578125 15.769531 -5.316406 16.71875 -6.796875 C 17.675781 -8.285156 18.15625 -10.144531 18.15625 -12.375 C 18.15625 -14.582031 17.679688 -16.445312 16.734375 -17.96875 C 15.796875 -19.5 14.445312 -20.265625 12.6875 -20.265625 C 11.488281 -20.265625 10.472656 -19.898438 9.640625 -19.171875 C 8.804688 -18.441406 8.179688 -17.476562 7.765625 -16.28125 C 7.359375 -15.082031 7.15625 -13.78125 7.15625 -12.375 C 7.15625 -10.1875 7.628906 -8.335938 8.578125 -6.828125 C 9.535156 -5.328125 10.90625 -4.578125 12.6875 -4.578125 Z M 12.6875 -4.578125 "/></g></g></g><g fill="#feebd2" fill-opacity="1"><g transform="translate(151.585935, 200.48524)"><g><path d="M 4.515625 0.109375 C 3.242188 0.109375 2.207031 0.015625 1.40625 -0.171875 L 1.40625 -4.09375 C 1.925781 -4 2.429688 -3.953125 2.921875 -3.953125 C 3.722656 -3.953125 4.3125 -4.09375 4.6875 -4.375 C 5.0625 -4.65625 5.289062 -5.003906 5.375 -5.421875 C 5.457031 -5.847656 5.5 -6.414062 5.5 -7.125 L 5.5 -24.671875 L 10.96875 -24.671875 L 10.96875 -5.421875 C 10.96875 -4.085938 10.566406 -2.832031 9.765625 -1.65625 C 8.960938 -0.476562 7.210938 0.109375 4.515625 0.109375 Z M 4.515625 0.109375 "/></g></g></g><g fill="#feebd2" fill-opacity="1"><g transform="translate(164.732133, 200.48524)"><g><path d="M 7.375 -19.875 L 7.375 -14.625 L 16.75 -14.625 L 16.75 -10.359375 L 7.375 -10.359375 L 7.375 -4.796875 L 18.5 -4.796875 L 18.5 0 L 1.828125 0 L 1.828125 -24.671875 L 18.5 -24.671875 L 18.5 -19.875 Z M 7.375 -19.875 "/></g></g></g><g fill="#feebd2" fill-opacity="1"><g transform="translate(184.680516, 200.48524)"><g><path d="M 12.65625 0.3125 C 10.28125 0.3125 8.238281 -0.265625 6.53125 -1.421875 C 4.832031 -2.585938 3.539062 -4.144531 2.65625 -6.09375 C 1.78125 -8.050781 1.34375 -10.164062 1.34375 -12.4375 C 1.34375 -14.71875 1.78125 -16.828125 2.65625 -18.765625 C 3.539062 -20.703125 4.832031 -22.253906 6.53125 -23.421875 C 8.238281 -24.585938 10.28125 -25.171875 12.65625 -25.171875 C 15.539062 -25.171875 17.898438 -24.320312 19.734375 -22.625 C 21.566406 -20.9375 22.753906 -18.753906 23.296875 -16.078125 L 17.984375 -16.078125 C 17.691406 -17.296875 17.082031 -18.316406 16.15625 -19.140625 C 15.226562 -19.960938 14.082031 -20.375 12.71875 -20.375 C 10.84375 -20.375 9.425781 -19.640625 8.46875 -18.171875 C 7.519531 -16.703125 7.046875 -14.789062 7.046875 -12.4375 C 7.046875 -10.039062 7.519531 -8.113281 8.46875 -6.65625 C 9.425781 -5.207031 10.84375 -4.484375 12.71875 -4.484375 C 14.0625 -4.484375 15.1875 -4.878906 16.09375 -5.671875 C 17 -6.472656 17.601562 -7.425781 17.90625 -8.53125 L 23.15625 -8.53125 C 22.644531 -5.945312 21.476562 -3.828125 19.65625 -2.171875 C 17.832031 -0.515625 15.5 0.3125 12.65625 0.3125 Z M 12.65625 0.3125 "/></g></g></g><g fill="#feebd2" fill-opacity="1"><g transform="translate(209.175437, 200.48524)"><g><path d="M 19.671875 -19.875 L 13.1875 -19.875 L 13.1875 0 L 7.71875 0 L 7.71875 -19.875 L 1.234375 -19.875 L 1.234375 -24.671875 L 19.671875 -24.671875 Z M 19.671875 -19.875 "/></g></g></g><g fill="#feebd2" fill-opacity="1"><g transform="translate(230.110669, 200.48524)"><g/></g></g><g fill="#feebd2" fill-opacity="1"><g transform="translate(238.216905, 200.48524)"><g><path d="M 15.859375 -5.703125 L 7.96875 -5.703125 L 6.203125 0 L 0.640625 0 L 9.40625 -24.671875 L 14.515625 -24.671875 L 23.234375 0 L 17.65625 0 Z M 14.515625 -9.90625 L 11.984375 -17.875 L 11.78125 -17.875 L 9.3125 -9.90625 Z M 14.515625 -9.90625 "/></g></g></g><g fill="#feebd2" fill-opacity="1"><g transform="translate(261.936451, 200.48524)"><g><path d="M 1.828125 -24.703125 L 11.5625 -24.703125 C 13.75 -24.703125 15.675781 -24.210938 17.34375 -23.234375 C 19.007812 -22.265625 20.304688 -20.859375 21.234375 -19.015625 C 22.160156 -17.171875 22.625 -14.96875 22.625 -12.40625 C 22.625 -9.800781 22.15625 -7.566406 21.21875 -5.703125 C 20.28125 -3.847656 18.96875 -2.4375 17.28125 -1.46875 C 15.601562 -0.507812 13.671875 -0.03125 11.484375 -0.03125 L 1.828125 -0.03125 Z M 10.46875 -4.96875 C 12.394531 -4.96875 13.921875 -5.519531 15.046875 -6.625 C 16.179688 -7.726562 16.75 -9.65625 16.75 -12.40625 C 16.75 -15.15625 16.1875 -17.082031 15.0625 -18.1875 C 13.945312 -19.289062 12.414062 -19.84375 10.46875 -19.84375 L 7.15625 -19.84375 L 7.15625 -4.96875 Z M 10.46875 -4.96875 "/></g></g></g><g fill="#feebd2" fill-opacity="1"><g transform="translate(285.796968, 200.48524)"><g><path d="M 1.828125 -24.671875 L 10.015625 -24.671875 L 14.84375 -10.6875 L 14.953125 -10.6875 L 19.78125 -24.671875 L 27.953125 -24.671875 L 27.953125 0 L 22.5625 0 L 22.5625 -16.921875 L 22.421875 -16.921875 L 16.640625 0 L 13.140625 0 L 7.375 -16.921875 L 7.21875 -16.921875 L 7.21875 0 L 1.828125 0 Z M 1.828125 -24.671875 "/></g></g></g><g fill="#feebd2" fill-opacity="1"><g transform="translate(315.578577, 200.48524)"><g><path d="M 2.078125 -24.671875 L 7.609375 -24.671875 L 7.609375 0 L 2.078125 0 Z M 2.078125 -24.671875 "/></g></g></g><g fill="#feebd2" fill-opacity="1"><g transform="translate(325.306057, 200.48524)"><g><path d="M 19.671875 -19.875 L 13.1875 -19.875 L 13.1875 0 L 7.71875 0 L 7.71875 -19.875 L 1.234375 -19.875 L 1.234375 -24.671875 L 19.671875 -24.671875 Z M 19.671875 -19.875 "/></g></g></g></svg>